# Blender v2.93.4 OBJ File: 'MarketStalls.blend'
# www.blender.org
mtllib Apple.mtl
o Apple_Sphere.050
v 0.489582 0.692100 0.411809
v 0.491726 0.726117 0.486591
v 0.501834 0.731153 0.477692
v 0.531140 0.722359 0.446005
v 0.535852 0.701627 0.436050
v 0.532856 0.680254 0.433687
v 0.525082 0.660878 0.436631
v 0.514225 0.644091 0.443327
v 0.501141 0.631428 0.453301
v 0.488738 0.630512 0.465546
v 0.477014 0.638570 0.479364
v 0.493207 0.725813 0.489424
v 0.506697 0.730153 0.486995
v 0.548552 0.718777 0.479312
v 0.557546 0.697164 0.477548
v 0.555876 0.675518 0.477723
v 0.547318 0.656304 0.479167
v 0.534162 0.639989 0.481464
v 0.517419 0.628079 0.484439
v 0.500248 0.628144 0.487564
v 0.482972 0.637344 0.490762
v 0.492826 0.726105 0.492599
v 0.505442 0.731097 0.497423
v 0.544007 0.721983 0.516655
v 0.551868 0.701106 0.524076
v 0.549851 0.679701 0.527097
v 0.541498 0.660344 0.526858
v 0.528944 0.643611 0.524223
v 0.513159 0.631037 0.519352
v 0.497235 0.630235 0.512251
v 0.481413 0.638427 0.503541
v 0.490711 0.726822 0.494906
v 0.498501 0.733467 0.505000
v 0.519209 0.730642 0.543775
v 0.520987 0.711946 0.557862
v 0.517081 0.691205 0.562949
v 0.509845 0.671455 0.561489
v 0.500564 0.653574 0.555272
v 0.489987 0.639171 0.544703
v 0.480850 0.635987 0.530177
v 0.472931 0.641404 0.512820
v 0.487688 0.727750 0.495462
v 0.488573 0.736515 0.506824
v 0.483661 0.741557 0.550307
v 0.476699 0.725545 0.566000
v 0.470084 0.705635 0.571586
v 0.464450 0.685394 0.569831
v 0.459864 0.666071 0.562751
v 0.456755 0.649375 0.550810
v 0.457352 0.643202 0.534495
v 0.460767 0.645139 0.515055
v 0.487196 0.723561 0.490504
v 0.484911 0.728535 0.494053
v 0.479449 0.739079 0.502199
v 0.450943 0.750558 0.533757
v 0.435919 0.736708 0.545383
v 0.426811 0.717481 0.549707
v 0.422651 0.696836 0.548698
v 0.422388 0.676330 0.543804
v 0.426156 0.657751 0.535340
v 0.435715 0.649125 0.523556
v 0.449567 0.648205 0.509393
v 0.483423 0.728817 0.491221
v 0.474567 0.740018 0.492899
v 0.433519 0.754098 0.500451
v 0.414225 0.741171 0.503885
v 0.403790 0.722217 0.505671
v 0.400415 0.701410 0.506162
v 0.402451 0.680431 0.505667
v 0.409878 0.661100 0.504201
v 0.424205 0.651493 0.501538
v 0.443609 0.649431 0.497995
v 0.483811 0.728548 0.488045
v 0.475840 0.739135 0.482468
v 0.438076 0.750935 0.463106
v 0.419904 0.737229 0.457357
v 0.409815 0.718034 0.456297
v 0.406235 0.697370 0.458471
v 0.407669 0.676809 0.462908
v 0.414139 0.658142 0.469289
v 0.427217 0.649401 0.476851
v 0.445169 0.648348 0.485216
v 0.464276 0.646694 0.494219
v 0.485926 0.727831 0.485738
v 0.482781 0.736765 0.474891
v 0.462875 0.742276 0.435987
v 0.450785 0.726389 0.423571
v 0.442585 0.706530 0.420445
v 0.437888 0.686259 0.423840
v 0.436049 0.666846 0.431859
v 0.437311 0.650008 0.443938
v 0.443602 0.643650 0.458925
v 0.453650 0.645371 0.475937
v 0.488949 0.726902 0.485182
v 0.492710 0.733717 0.473067
v 0.498422 0.731361 0.429454
v 0.495073 0.712790 0.415432
v 0.483283 0.672320 0.415498
v 0.476750 0.654349 0.424380
v 0.470543 0.639804 0.437831
v 0.467101 0.636434 0.454607
v 0.465814 0.641636 0.473702
v 0.523544 0.732060 0.456084
v 0.512092 0.733689 0.468012
v 0.518897 0.734195 0.461295
v 0.520690 0.731920 0.484459
v 0.536834 0.729326 0.481507
v 0.530111 0.731888 0.482745
v 0.518463 0.733562 0.502896
v 0.533377 0.731813 0.510007
v 0.527199 0.734004 0.506791
v 0.506200 0.737779 0.516290
v 0.514437 0.738382 0.530708
v 0.511214 0.739529 0.524259
v 0.488647 0.743168 0.519516
v 0.487306 0.746712 0.535694
v 0.488321 0.746558 0.528466
v 0.472509 0.747672 0.511341
v 0.462345 0.753623 0.523060
v 0.467266 0.752406 0.517805
v 0.463887 0.749361 0.494898
v 0.449034 0.756285 0.497641
v 0.456029 0.754635 0.496358
v 0.466138 0.747799 0.476457
v 0.452512 0.753870 0.469137
v 0.458964 0.752597 0.472308
v 0.478400 0.743582 0.463063
v 0.471452 0.747302 0.448436
v 0.474950 0.747072 0.454841
v 0.495953 0.738192 0.459837
v 0.498584 0.738971 0.443451
v 0.497842 0.740043 0.450634
v 0.489674 0.784221 0.485667
v 0.489271 0.772824 0.490833
v 0.488622 0.740241 0.493514
v 0.490952 0.756534 0.492418
v 0.487049 0.740020 0.490715
v 0.487712 0.772530 0.488042
v 0.489422 0.756275 0.489627
v 0.488100 0.772261 0.484865
v 0.487436 0.739751 0.487538
v 0.489809 0.756006 0.486451
v 0.489637 0.739536 0.485199
v 0.490285 0.772120 0.482518
v 0.491967 0.755829 0.484103
v 0.497922 0.772418 0.486051
v 0.497308 0.739803 0.488739
v 0.499468 0.756111 0.487621
v 0.496924 0.740094 0.491914
v 0.497531 0.772708 0.489225
v 0.499081 0.756402 0.490795
v 0.492194 0.772934 0.492184
v 0.491553 0.740315 0.494869
v 0.493820 0.756626 0.493764
v 0.492812 0.739469 0.484589
v 0.493444 0.772088 0.481903
v 0.495074 0.755779 0.483483
v 0.496364 0.772179 0.483255
v 0.495741 0.739566 0.485941
v 0.497940 0.755873 0.484828
v 0.494725 0.740269 0.494257
v 0.495350 0.772882 0.491570
v 0.496925 0.756576 0.493144
vt 0.700000 0.500000
vt 0.600000 0.416667
vt 0.700000 0.416667
vt 0.600000 0.666667
vt 0.500000 0.723372
vt 0.500000 0.666667
vt 0.700000 0.166667
vt 0.600000 0.083333
vt 0.700000 0.083333
vt 0.700000 0.916667
vt 0.650000 1.000000
vt 0.600000 0.916667
vt 0.600000 0.333333
vt 0.700000 0.333333
vt 0.700000 0.583333
vt 0.600000 0.583333
vt 0.650000 0.000000
vt 0.600000 0.833333
vt 0.700000 0.833333
vt 0.700000 0.250000
vt 0.600000 0.250000
vt 0.600000 0.500000
vt 0.500000 0.782087
vt 0.400000 0.833333
vt 0.400000 0.782087
vt 0.600000 0.166667
vt 0.550000 0.000000
vt 0.500000 0.083333
vt 0.500000 0.916667
vt 0.500000 0.833333
vt 0.500000 0.250000
vt 0.500000 0.500000
vt 0.700000 0.666667
vt 0.600000 0.723372
vt 0.500000 0.166667
vt 0.500000 0.416667
vt 0.600000 0.782087
vt 0.700000 0.782087
vt 0.550000 1.000000
vt 0.500000 0.333333
vt 0.500000 0.583333
vt 0.300000 0.782087
vt 0.400000 0.083333
vt 0.450000 1.000000
vt 0.400000 0.916667
vt 0.400000 0.333333
vt 0.400000 0.583333
vt 0.450000 0.000000
vt 0.400000 0.250000
vt 0.400000 0.500000
vt 0.400000 0.666667
vt 0.400000 0.166667
vt 0.400000 0.416667
vt 0.300000 0.723372
vt 0.300000 0.666667
vt 0.300000 0.250000
vt 0.300000 0.166667
vt 0.300000 0.416667
vt 0.300000 0.833333
vt 0.200000 0.782087
vt 0.300000 0.083333
vt 0.350000 1.000000
vt 0.300000 0.916667
vt 0.300000 0.333333
vt 0.300000 0.583333
vt 0.350000 0.000000
vt 0.300000 0.500000
vt 0.200000 0.666667
vt 0.200000 0.583333
vt 0.250000 0.000000
vt 0.200000 0.083333
vt 0.200000 0.833333
vt 0.200000 0.250000
vt 0.200000 0.500000
vt 0.200000 0.723372
vt 0.200000 0.166667
vt 0.200000 0.416667
vt 0.100000 0.833333
vt 0.100000 0.782087
vt 0.250000 1.000000
vt 0.200000 0.916667
vt 0.200000 0.333333
vt 0.000000 0.782087
vt 0.100000 0.083333
vt 0.150000 1.000000
vt 0.100000 0.916667
vt 0.100000 0.333333
vt 0.100000 0.583333
vt 0.150000 0.000000
vt 0.100000 0.250000
vt 0.100000 0.500000
vt 0.100000 0.666667
vt 0.100000 0.166667
vt 0.100000 0.416667
vt 0.000000 0.500000
vt 0.000000 0.723372
vt 0.000000 0.666667
vt 0.000000 0.250000
vt 0.000000 0.166667
vt 0.000000 0.416667
vt 1.000000 0.782087
vt 0.900000 0.833333
vt 0.900000 0.782087
vt 0.000000 0.083333
vt 0.050000 1.000000
vt 0.000000 0.916667
vt 0.000000 0.333333
vt 0.000000 0.583333
vt 0.050000 0.000000
vt 0.000000 0.833333
vt 1.000000 0.583333
vt 0.900000 0.666667
vt 0.900000 0.583333
vt 0.950000 0.000000
vt 1.000000 0.083333
vt 0.900000 0.083333
vt 1.000000 0.916667
vt 1.000000 0.833333
vt 1.000000 0.333333
vt 0.900000 0.250000
vt 1.000000 0.250000
vt 0.900000 0.500000
vt 1.000000 0.500000
vt 1.000000 0.723372
vt 1.000000 0.666667
vt 1.000000 0.166667
vt 0.900000 0.166667
vt 1.000000 0.416667
vt 0.900000 0.416667
vt 0.800000 0.833333
vt 0.800000 0.782087
vt 0.950000 1.000000
vt 0.900000 0.916667
vt 0.900000 0.333333
vt 0.800000 0.500000
vt 0.800000 0.416667
vt 0.800000 0.083333
vt 0.850000 1.000000
vt 0.800000 0.916667
vt 0.800000 0.333333
vt 0.800000 0.583333
vt 0.850000 0.000000
vt 0.800000 0.250000
vt 0.900000 0.723372
vt 0.800000 0.666667
vt 0.800000 0.166667
vt 0.800000 0.723372
vt 0.750000 1.000000
vt 0.750000 0.000000
vt 0.500000 0.750000
vt 0.600000 0.750000
vt 0.400000 0.723372
vt 0.300000 0.750000
vt 0.200000 0.750000
vt 0.100000 0.723372
vt 0.000600 0.750000
vt 0.900000 0.750000
vt 0.999400 0.750000
vt 0.700000 0.750000
vt 0.700000 0.723372
vt 0.800000 0.750000
vt 0.100000 0.916667
vt 0.900000 0.916667
vt 0.800000 0.916667
vt 0.600000 0.916667
vt 0.000000 0.916667
vt 0.600000 0.916667
vt 0.500000 0.916667
vt 0.500000 0.916667
vt 0.800000 0.916667
vt 0.900000 0.916667
vt 0.800000 0.916667
vt 0.500000 0.916667
vt 0.400000 0.916667
vt 0.300000 0.916667
vt 0.200000 0.916667
vt 0.200000 0.916667
vt 0.200000 0.916667
vt 0.700000 0.916667
vt 0.700000 0.916667
vt 0.600000 0.916667
vt 0.400000 0.916667
vt 0.300000 0.916667
vt 0.300000 0.916667
vt 1.000000 0.916667
vt 0.900000 0.916667
vt 0.700000 0.916667
vt 0.400000 0.916667
vt 0.000000 0.916667
vt 0.100000 0.916667
vt 0.000000 0.916667
vt 0.157489 0.916667
vt 0.258770 0.916667
vt 0.742510 0.916667
vt 0.376182 0.916667
vt 0.641230 0.916667
vt 1.000000 0.916667
vt 0.900000 0.916667
vt 1.000000 0.916667
vt 0.825777 0.916667
vt 0.074223 0.916667
vt 0.523818 0.916667
vt 0.000000 0.916667
vt 0.100000 0.916667
vt 0.400000 0.750000
vt 0.100000 0.750000
vn 0.1324 -0.0443 -0.9902
vn 0.5631 -0.4648 -0.6832
vn 0.0447 -0.3229 -0.9454
vn 0.6373 0.5936 -0.4913
vn 0.5369 0.8384 -0.0936
vn 0.8180 0.5564 -0.1458
vn -0.2723 -0.9609 -0.0501
vn -0.3977 -0.9010 0.1733
vn -0.3023 -0.9271 0.2216
vn 0.2711 0.9597 0.0742
vn 0.2855 0.9573 -0.0458
vn 0.2076 0.9772 0.0438
vn 0.4299 -0.6731 -0.6017
vn -0.0360 -0.5455 -0.8373
vn 0.2299 0.3278 -0.9163
vn 0.7156 0.1952 -0.6706
vn -0.2854 -0.9573 0.0462
vn -0.0568 0.9520 0.3007
vn 0.1964 0.8818 0.4287
vn -0.1557 -0.8157 -0.5571
vn 0.1661 -0.9038 -0.3944
vn 0.6677 -0.1908 -0.7195
vn -0.0466 0.9988 0.0121
vn -0.1600 0.9553 -0.2486
vn -0.0220 0.9814 -0.1906
vn -0.2203 -0.9751 -0.0237
vn -0.4484 -0.8905 0.0763
vn 0.1693 0.9851 -0.0284
vn -0.1940 0.9802 0.0382
vn 0.3373 -0.9390 -0.0669
vn 0.9525 -0.2494 -0.1747
vn 0.2976 0.6858 -0.6641
vn 0.4581 0.8546 -0.2445
vn -0.1926 -0.9808 0.0292
vn 0.8389 -0.5215 -0.1557
vn 0.0508 0.9788 0.1984
vn 0.2302 0.9294 0.2885
vn 0.6778 -0.7241 -0.1276
vn 0.9740 0.1421 -0.1764
vn 0.1126 0.9344 -0.3379
vn -0.4352 -0.8997 -0.0325
vn 0.1795 0.9787 -0.0994
vn 0.6129 -0.6790 0.4040
vn 0.9064 0.1887 0.3778
vn 0.2925 -0.9079 0.3002
vn 0.8779 -0.1977 0.4360
vn 0.7711 0.5886 0.2427
vn -0.1998 -0.9758 0.0886
vn 0.7667 -0.4714 0.4358
vn 0.4021 0.8929 0.2025
vn 0.5130 0.6797 0.5242
vn 0.0488 -0.8224 0.5669
vn -0.2392 -0.9619 0.1317
vn 0.3741 -0.3336 0.8653
vn 0.0311 0.8892 -0.4565
vn 0.3115 0.8733 -0.3744
vn -0.3629 -0.9251 -0.1115
vn 0.2246 0.9628 -0.1503
vn 0.2601 -0.5552 0.7900
vn 0.5386 0.3181 0.7802
vn 0.4725 -0.0553 0.8795
vn 0.1442 0.7930 0.5919
vn 0.0111 0.4801 0.8771
vn -0.2594 -0.9569 -0.1305
vn 0.3112 0.8032 -0.5080
vn -0.3007 -0.7150 0.6311
vn -0.1088 0.1231 0.9864
vn 0.2412 0.9423 0.2321
vn -0.2958 -0.9446 0.1422
vn -0.1889 -0.1607 0.9687
vn 0.5627 0.7334 -0.3815
vn 0.4892 0.8244 -0.2846
vn 0.3005 0.9394 -0.1647
vn -0.2459 -0.3998 0.8830
vn 0.5838 0.8053 -0.1037
vn -0.1640 -0.9830 -0.0823
vn 0.3608 0.9229 -0.1344
vn -0.7118 -0.2723 0.6474
vn -0.4748 0.6128 0.6317
vn -0.6225 -0.6270 0.4684
vn -0.6442 0.2697 0.7157
vn -0.1965 0.8857 0.4205
vn -0.3479 -0.9303 0.1158
vn -0.7073 -0.0188 0.7066
vn -0.9290 0.3283 0.1710
vn 0.0108 0.9999 0.0030
vn -0.3769 0.9233 0.0738
vn -0.7937 -0.5918 0.1409
vn -0.3756 -0.9246 0.0628
vn -0.9831 0.0379 0.1791
vn 0.6602 0.7318 0.1689
vn 0.5582 0.8230 0.1052
vn -0.1133 -0.9934 0.0147
vn 0.3968 0.9151 -0.0719
vn -0.9597 -0.2213 0.1733
vn -0.7330 0.6662 0.1373
vn 0.6961 0.7069 -0.1253
vn -0.3296 0.8905 -0.3136
vn -0.6654 0.6193 -0.4169
vn -0.1266 -0.9842 0.1235
vn -0.7489 -0.6229 -0.2262
vn -0.8544 0.2765 -0.4398
vn -0.3683 -0.9297 0.0034
vn -0.9109 -0.0122 -0.4124
vn 0.4679 0.7984 0.3788
vn 0.4220 0.8705 0.2532
vn 0.3866 0.9222 0.0119
vn -0.8948 -0.2663 -0.3583
vn -0.4490 0.1342 -0.8834
vn -0.5183 -0.1500 -0.8419
vn -0.1988 -0.9589 0.2025
vn 0.3339 0.9404 0.0645
vn -0.5420 -0.3902 -0.7443
vn -0.2978 0.4898 -0.8194
vn -0.5052 -0.7084 -0.4929
vn 0.0315 0.9856 -0.1661
vn -0.0731 0.7996 -0.5960
vn -0.3289 -0.9435 -0.0397
vn 0.1435 0.9459 -0.2911
vn 0.2120 0.9766 -0.0345
vn 0.2354 0.9718 0.0101
vn 0.5169 0.8524 0.0784
vn 0.2478 0.9622 -0.1130
vn 0.2954 0.9476 -0.1218
vn 0.0900 0.9835 0.1569
vn 0.3565 0.9323 -0.0610
vn 0.3504 0.9365 -0.0110
vn 0.2770 0.9604 0.0297
vn 0.3091 0.8950 -0.3215
vn 0.3183 0.9477 0.0221
vn -0.6614 0.1914 0.7252
vn -0.8808 0.1827 -0.4368
vn -0.4651 0.0551 -0.8835
vn 0.6810 -0.1886 -0.7075
vn -0.9557 0.2347 0.1774
vn 0.6573 0.2228 -0.7199
vn -0.2221 0.9689 -0.1091
vn 0.9276 0.3107 -0.2072
vn -0.4754 0.0326 -0.8791
vn -0.9045 0.0039 -0.4263
vn 0.9627 -0.2116 -0.1683
vn 0.8902 -0.1607 0.4262
vn 0.4698 0.3520 0.8096
vn -0.1094 0.2827 0.9529
vn -0.1053 0.0780 0.9914
vn 0.1359 -0.0895 -0.9867
vn 0.1271 0.1198 -0.9846
vn 0.8571 0.3612 0.3674
vn 0.4886 -0.0551 0.8708
vn -0.9799 0.0562 0.1913
vn -0.6702 0.1689 0.7226
vn -0.0973 0.0832 0.9918
vn 0.5065 0.0610 0.8601
vn 0.1440 -0.0843 -0.9860
vn 0.9110 0.0179 0.4119
vn 0.6983 -0.0721 -0.7121
vn -0.9803 0.0363 0.1940
vn -0.9047 -0.0162 -0.4257
vn -0.4732 -0.0633 -0.8787
vn -0.6705 0.0736 0.7382
vn 0.9832 -0.0331 -0.1794
vn 0.2184 0.9726 -0.0796
vn 0.3347 0.9369 -0.1010
usemtl None
s 1
f 1/1/1 7/2/2 98/3/3
f 4/4/4 107/5/5 14/6/6
f 101/7/7 11/8/8 102/9/9
f 94/10/10 52/11/11 2/12/12
f 98/3/3 8/13/13 99/14/14
f 97/15/15 4/4/4 5/16/16
f 83/17/17 102/9/9 11/8/8
f 94/10/10 3/18/18 95/19/19
f 100/20/20 8/13/13 9/21/21
f 1/1/1 5/16/16 6/22/22
f 106/23/23 23/24/24 109/25/25
f 100/20/20 10/26/26 101/7/7
f 83/27/17 11/8/8 21/28/27
f 3/18/18 12/29/28 13/30/29
f 8/13/13 19/31/30 9/21/21
f 5/16/16 16/32/31 6/22/22
f 96/33/32 103/34/33 4/4/4
f 10/26/26 19/31/30 20/35/34
f 6/22/22 17/36/35 7/2/2
f 95/19/19 104/37/36 130/38/37
f 10/26/26 21/28/27 11/8/8
f 2/12/12 52/39/11 12/29/28
f 7/2/2 18/40/38 8/13/13
f 4/4/4 15/41/39 5/16/16
f 23/24/24 112/42/40 109/25/25
f 20/35/34 31/43/41 21/28/27
f 12/29/28 52/44/11 22/45/42
f 17/36/35 28/46/43 18/40/38
f 14/6/6 25/47/44 15/41/39
f 83/48/17 21/28/27 31/43/41
f 13/30/29 22/45/42 23/24/24
f 18/40/38 29/49/45 19/31/30
f 15/41/39 26/50/46 16/32/31
f 107/5/5 24/51/47 14/6/6
f 19/31/30 30/52/48 20/35/34
f 17/36/35 26/50/46 27/53/49
f 24/51/47 113/54/50 34/55/51
f 30/52/48 39/56/52 40/57/53
f 26/50/46 37/58/54 27/53/49
f 33/59/55 115/60/56 112/42/40
f 30/52/48 41/61/57 31/43/41
f 22/45/42 52/62/11 32/63/58
f 27/53/49 38/64/59 28/46/43
f 25/47/44 34/55/51 35/65/60
f 83/66/17 31/43/41 41/61/57
f 22/45/42 33/59/55 23/24/24
f 28/46/43 39/56/52 29/49/45
f 25/47/44 36/67/61 26/50/46
f 35/65/60 44/68/62 45/69/63
f 83/70/17 41/61/57 51/71/64
f 32/63/58 43/72/65 33/59/55
f 38/64/59 49/73/66 39/56/52
f 35/65/60 46/74/67 36/67/61
f 34/55/51 116/75/68 44/68/62
f 40/57/53 49/73/66 50/76/69
f 36/67/61 47/77/70 37/58/54
f 115/60/56 54/78/71 118/79/72
f 40/57/53 51/71/64 41/61/57
f 32/63/58 52/80/11 42/81/73
f 37/58/54 48/82/74 38/64/59
f 54/78/71 121/83/75 118/79/72
f 50/76/69 62/84/76 51/71/64
f 42/81/73 52/85/11 53/86/77
f 47/77/70 59/87/78 48/82/74
f 44/68/62 56/88/79 45/69/63
f 83/89/17 51/71/64 62/84/76
f 43/72/65 53/86/77 54/78/71
f 48/82/74 60/90/80 49/73/66
f 45/69/63 57/91/81 46/74/67
f 116/75/68 55/92/82 44/68/62
f 50/76/69 60/90/80 61/93/83
f 47/77/70 57/91/81 58/94/84
f 56/88/79 67/95/85 57/91/81
f 55/92/82 122/96/86 65/97/87
f 61/93/83 70/98/88 71/99/89
f 57/91/81 68/100/90 58/94/84
f 121/101/75 74/102/91 124/103/92
f 61/93/83 72/104/93 62/84/76
f 53/86/77 52/105/11 63/106/94
f 58/94/84 69/107/95 59/87/78
f 56/88/79 65/97/87 66/108/96
f 83/109/17 62/84/76 72/104/93
f 53/86/77 64/110/97 54/78/71
f 60/90/80 69/107/95 70/98/88
f 66/111/96 75/112/98 76/113/99
f 83/114/17 72/115/93 82/116/100
f 63/117/94 74/102/91 64/118/97
f 69/119/95 80/120/101 70/121/88
f 66/111/96 77/122/102 67/123/85
f 122/124/86 75/112/98 65/125/87
f 71/126/89 80/120/101 81/127/103
f 68/128/90 77/122/102 78/129/104
f 124/103/92 85/130/105 127/131/106
f 71/126/89 82/116/100 72/115/93
f 63/117/94 52/132/11 73/133/107
f 68/128/90 79/134/108 69/119/95
f 78/129/104 88/135/109 89/136/110
f 85/130/105 130/38/37 127/131/106
f 81/127/103 93/137/111 82/116/100
f 73/133/107 52/138/11 84/139/112
f 78/129/104 90/140/113 79/134/108
f 75/112/98 87/141/114 76/113/99
f 83/142/17 82/116/100 93/137/111
f 74/102/91 84/139/112 85/130/105
f 79/134/108 91/143/115 80/120/101
f 76/113/99 88/135/109 77/122/102
f 125/144/116 86/145/117 75/112/98
f 81/127/103 91/143/115 92/146/118
f 87/141/114 1/1/1 88/135/109
f 128/147/119 96/33/32 86/145/117
f 92/146/118 100/20/20 101/7/7
f 88/135/109 98/3/3 89/136/110
f 92/146/118 102/9/9 93/137/111
f 84/139/112 52/148/11 94/10/10
f 89/136/110 99/14/14 90/140/113
f 87/141/114 96/33/32 97/15/15
f 83/149/17 93/137/111 102/9/9
f 84/139/112 95/19/19 85/130/105
f 91/143/115 99/14/14 100/20/20
f 103/34/33 108/150/120 107/5/5
f 105/151/121 106/23/23 108/150/120
f 109/25/25 108/150/120 106/23/23
f 108/150/120 110/152/122 107/5/5
f 110/152/122 114/153/123 113/54/50
f 114/153/123 109/25/25 112/42/40
f 116/75/68 114/153/123 117/154/124
f 117/154/124 112/42/40 115/60/56
f 118/79/72 117/154/124 115/60/56
f 117/154/124 119/155/125 116/75/68
f 119/155/125 123/156/126 122/96/86
f 123/156/126 118/79/72 121/83/75
f 122/124/86 126/157/127 125/144/116
f 123/158/126 124/103/92 126/157/127
f 127/131/106 126/157/127 124/103/92
f 126/157/127 128/147/119 125/144/116
f 128/147/119 132/159/128 131/160/129
f 129/161/130 130/38/37 132/159/128
f 130/38/37 105/151/121 132/159/128
f 105/151/121 131/160/129 132/159/128
f 3/18/18 106/23/23 104/37/36
f 42/81/73 135/162/131 53/86/77
f 84/139/112 141/163/132 143/164/133
f 159/165/134 12/29/28 2/12/12
f 53/86/77 137/166/135 63/106/94
f 158/167/136 133/168/137 146/169/138
f 144/170/139 140/171/140 133/172/137
f 22/45/42 147/173/141 149/174/142
f 162/175/143 133/176/137 152/177/144
f 32/63/58 153/178/145 42/81/73
f 2/12/12 155/179/146 159/165/134
f 158/167/136 156/180/147 133/181/137
f 162/175/143 150/182/148 133/183/137
f 22/45/42 161/184/149 32/63/58
f 138/185/150 133/186/137 140/171/140
f 156/180/147 144/170/139 133/187/137
f 63/117/94 141/163/132 73/133/107
f 150/182/148 146/169/138 133/188/137
f 94/10/10 143/164/133 155/179/146
f 138/189/150 134/190/151 133/191/137
f 162/175/143 154/192/152 163/193/153
f 154/192/152 161/184/149 163/193/153
f 158/167/136 157/194/154 156/180/147
f 157/194/154 159/165/134 155/179/146
f 150/182/148 163/193/153 151/195/155
f 163/193/153 149/174/142 151/195/155
f 146/169/138 160/196/156 158/167/136
f 160/196/156 147/173/141 159/165/134
f 140/171/140 139/197/157 138/185/150
f 142/198/158 137/199/135 139/197/157
f 156/180/147 145/200/159 144/170/139
f 145/200/159 155/179/146 143/164/133
f 152/177/144 136/201/160 154/192/152
f 136/201/160 153/178/145 154/192/152
f 146/169/138 151/195/155 148/202/161
f 148/202/161 149/174/142 147/173/141
f 144/170/139 142/198/158 140/171/140
f 142/198/158 143/164/133 141/163/132
f 134/190/151 139/203/157 136/201/160
f 139/203/157 135/162/131 136/201/160
f 134/190/151 152/177/144 133/204/137
f 1/1/1 6/22/22 7/2/2
f 4/4/4 103/34/33 107/5/5
f 101/7/7 10/26/26 11/8/8
f 98/3/3 7/2/2 8/13/13
f 97/15/15 96/33/32 4/4/4
f 94/10/10 2/12/12 3/18/18
f 100/20/20 99/14/14 8/13/13
f 1/1/1 97/15/15 5/16/16
f 106/23/23 13/30/29 23/24/24
f 100/20/20 9/21/21 10/26/26
f 3/18/18 2/12/12 12/29/28
f 8/13/13 18/40/38 19/31/30
f 5/16/16 15/41/39 16/32/31
f 96/33/32 131/160/129 103/34/33
f 10/26/26 9/21/21 19/31/30
f 6/22/22 16/32/31 17/36/35
f 95/19/19 3/18/18 104/37/36
f 10/26/26 20/35/34 21/28/27
f 7/2/2 17/36/35 18/40/38
f 4/4/4 14/6/6 15/41/39
f 23/24/24 33/59/55 112/42/40
f 20/35/34 30/52/48 31/43/41
f 17/36/35 27/53/49 28/46/43
f 14/6/6 24/51/47 25/47/44
f 13/30/29 12/29/28 22/45/42
f 18/40/38 28/46/43 29/49/45
f 15/41/39 25/47/44 26/50/46
f 107/5/5 110/152/122 24/51/47
f 19/31/30 29/49/45 30/52/48
f 17/36/35 16/32/31 26/50/46
f 24/51/47 110/152/122 113/54/50
f 30/52/48 29/49/45 39/56/52
f 26/50/46 36/67/61 37/58/54
f 33/59/55 43/72/65 115/60/56
f 30/52/48 40/57/53 41/61/57
f 27/53/49 37/58/54 38/64/59
f 25/47/44 24/51/47 34/55/51
f 22/45/42 32/63/58 33/59/55
f 28/46/43 38/64/59 39/56/52
f 25/47/44 35/65/60 36/67/61
f 35/65/60 34/55/51 44/68/62
f 32/63/58 42/81/73 43/72/65
f 38/64/59 48/82/74 49/73/66
f 35/65/60 45/69/63 46/74/67
f 34/55/51 113/54/50 116/75/68
f 40/57/53 39/56/52 49/73/66
f 36/67/61 46/74/67 47/77/70
f 115/60/56 43/72/65 54/78/71
f 40/57/53 50/76/69 51/71/64
f 37/58/54 47/77/70 48/82/74
f 54/78/71 64/110/97 121/83/75
f 50/76/69 61/93/83 62/84/76
f 47/77/70 58/94/84 59/87/78
f 44/68/62 55/92/82 56/88/79
f 43/72/65 42/81/73 53/86/77
f 48/82/74 59/87/78 60/90/80
f 45/69/63 56/88/79 57/91/81
f 116/75/68 119/155/125 55/92/82
f 50/76/69 49/73/66 60/90/80
f 47/77/70 46/74/67 57/91/81
f 56/88/79 66/108/96 67/95/85
f 55/92/82 119/155/125 122/96/86
f 61/93/83 60/90/80 70/98/88
f 57/91/81 67/95/85 68/100/90
f 121/101/75 64/118/97 74/102/91
f 61/93/83 71/99/89 72/104/93
f 58/94/84 68/100/90 69/107/95
f 56/88/79 55/92/82 65/97/87
f 53/86/77 63/106/94 64/110/97
f 60/90/80 59/87/78 69/107/95
f 66/111/96 65/125/87 75/112/98
f 63/117/94 73/133/107 74/102/91
f 69/119/95 79/134/108 80/120/101
f 66/111/96 76/113/99 77/122/102
f 122/124/86 125/144/116 75/112/98
f 71/126/89 70/121/88 80/120/101
f 68/128/90 67/123/85 77/122/102
f 124/103/92 74/102/91 85/130/105
f 71/126/89 81/127/103 82/116/100
f 68/128/90 78/129/104 79/134/108
f 78/129/104 77/122/102 88/135/109
f 85/130/105 95/19/19 130/38/37
f 81/127/103 92/146/118 93/137/111
f 78/129/104 89/136/110 90/140/113
f 75/112/98 86/145/117 87/141/114
f 74/102/91 73/133/107 84/139/112
f 79/134/108 90/140/113 91/143/115
f 76/113/99 87/141/114 88/135/109
f 125/144/116 128/147/119 86/145/117
f 81/127/103 80/120/101 91/143/115
f 87/141/114 97/15/15 1/1/1
f 128/147/119 131/160/129 96/33/32
f 92/146/118 91/143/115 100/20/20
f 88/135/109 1/1/1 98/3/3
f 92/146/118 101/7/7 102/9/9
f 89/136/110 98/3/3 99/14/14
f 87/141/114 86/145/117 96/33/32
f 84/139/112 94/10/10 95/19/19
f 91/143/115 90/140/113 99/14/14
f 103/34/33 105/151/121 108/150/120
f 105/151/121 104/37/36 106/23/23
f 109/25/25 111/205/162 108/150/120
f 108/150/120 111/205/162 110/152/122
f 110/152/122 111/205/162 114/153/123
f 114/153/123 111/205/162 109/25/25
f 116/75/68 113/54/50 114/153/123
f 117/154/124 114/153/123 112/42/40
f 118/79/72 120/206/163 117/154/124
f 117/154/124 120/206/163 119/155/125
f 119/155/125 120/206/163 123/156/126
f 123/156/126 120/206/163 118/79/72
f 122/124/86 123/158/126 126/157/127
f 123/158/126 121/101/75 124/103/92
f 127/131/106 129/161/130 126/157/127
f 126/157/127 129/161/130 128/147/119
f 128/147/119 129/161/130 132/159/128
f 129/161/130 127/131/106 130/38/37
f 130/38/37 104/37/36 105/151/121
f 105/151/121 103/34/33 131/160/129
f 3/18/18 13/30/29 106/23/23
f 42/81/73 153/178/145 135/162/131
f 84/139/112 73/133/107 141/163/132
f 159/165/134 147/173/141 12/29/28
f 53/86/77 135/162/131 137/166/135
f 22/45/42 12/29/28 147/173/141
f 32/63/58 161/184/149 153/178/145
f 2/12/12 94/10/10 155/179/146
f 22/45/42 149/174/142 161/184/149
f 63/117/94 137/199/135 141/163/132
f 94/10/10 84/139/112 143/164/133
f 162/175/143 152/177/144 154/192/152
f 154/192/152 153/178/145 161/184/149
f 158/167/136 160/196/156 157/194/154
f 157/194/154 160/196/156 159/165/134
f 150/182/148 162/175/143 163/193/153
f 163/193/153 161/184/149 149/174/142
f 146/169/138 148/202/161 160/196/156
f 160/196/156 148/202/161 147/173/141
f 140/171/140 142/198/158 139/197/157
f 142/198/158 141/163/132 137/199/135
f 156/180/147 157/194/154 145/200/159
f 145/200/159 157/194/154 155/179/146
f 152/177/144 134/190/151 136/201/160
f 136/201/160 135/162/131 153/178/145
f 146/169/138 150/182/148 151/195/155
f 148/202/161 151/195/155 149/174/142
f 144/170/139 145/200/159 142/198/158
f 142/198/158 145/200/159 143/164/133
f 134/190/151 138/189/150 139/203/157
f 139/203/157 137/166/135 135/162/131
