# Blender v2.93.4 OBJ File: 'MarketStalls.blend'
# www.blender.org
mtllib CheeseWheel.mtl
o CheeseWheel.002_Cylinder.004
v 8.113174 0.428786 5.617269
v 8.113174 0.680946 5.617269
v 8.194725 0.428786 5.628478
v 8.194725 0.680946 5.628478
v 8.270228 0.428786 5.661273
v 8.270228 0.680946 5.661273
v 8.334083 0.428786 5.713223
v 8.334083 0.680946 5.713223
v 8.381554 0.428786 5.780474
v 8.381554 0.680946 5.780474
v 8.409121 0.428786 5.858038
v 8.409121 0.680946 5.858038
v 8.414738 0.428786 5.940164
v 8.414738 0.680946 5.940164
v 8.397990 0.428786 6.020760
v 8.397990 0.680946 6.020760
v 8.360118 0.428786 6.093849
v 8.360118 0.680946 6.093849
v 8.303932 0.428786 6.154009
v 8.303932 0.680946 6.154009
v 8.234465 0.428786 6.196842
v 8.234465 0.680946 6.196842
v 8.154333 0.428786 6.218989
v 8.154333 0.680946 6.218989
v 8.072016 0.428786 6.218989
v 8.072016 0.680946 6.218989
v 7.992751 0.428786 6.196780
v 7.992751 0.680946 6.196780
v 7.922417 0.428786 6.154009
v 7.922417 0.680946 6.154009
v 7.866230 0.428786 6.093849
v 7.866230 0.680946 6.093849
v 7.828359 0.428786 6.020760
v 7.828359 0.680946 6.020760
v 7.811611 0.428786 5.940164
v 7.811611 0.680946 5.940164
v 7.817229 0.428786 5.858038
v 7.817229 0.680946 5.858038
v 7.844795 0.428786 5.780474
v 7.844795 0.680946 5.780474
v 7.892266 0.428786 5.713223
v 7.892266 0.680946 5.713223
v 7.956121 0.428786 5.661273
v 7.956121 0.680946 5.661273
v 8.031624 0.428786 5.628478
v 8.031624 0.680946 5.628478
v 8.113174 0.474086 5.596764
v 8.113174 0.527267 5.588709
v 8.113174 0.582464 5.588709
v 8.113174 0.635645 5.596764
v 8.200257 0.635645 5.608733
v 8.202431 0.582464 5.600977
v 8.202431 0.527267 5.600977
v 8.200257 0.474086 5.608733
v 8.280882 0.635645 5.643754
v 8.285068 0.582464 5.636871
v 8.285068 0.527267 5.636871
v 8.280882 0.474086 5.643754
v 8.349069 0.635645 5.699227
v 8.354956 0.582464 5.693729
v 8.354956 0.527267 5.693729
v 8.349069 0.474086 5.699227
v 8.399759 0.635645 5.771040
v 8.406912 0.582464 5.767334
v 8.406912 0.527267 5.767334
v 8.399759 0.474086 5.771040
v 8.429196 0.635645 5.853867
v 8.437082 0.582464 5.852228
v 8.437082 0.527267 5.852228
v 8.429196 0.474086 5.853867
v 8.435195 0.635645 5.941564
v 8.443231 0.582464 5.942113
v 8.443231 0.527267 5.942113
v 8.435195 0.474086 5.941564
v 8.417311 0.635645 6.027627
v 8.424900 0.582464 6.030324
v 8.424900 0.527267 6.030324
v 8.417311 0.474086 6.027627
v 8.376870 0.635645 6.105673
v 8.383451 0.582464 6.110318
v 8.383451 0.527267 6.110318
v 8.376870 0.474086 6.105673
v 8.316873 0.635645 6.169915
v 8.321956 0.582464 6.176163
v 8.321956 0.527267 6.176163
v 8.316873 0.474086 6.169915
v 8.242634 0.635645 6.215649
v 8.245843 0.582464 6.223037
v 8.245843 0.527267 6.223037
v 8.242634 0.474086 6.215649
v 8.157125 0.635645 6.239303
v 8.158222 0.582464 6.247283
v 8.158222 0.527267 6.247283
v 8.157125 0.474086 6.239303
v 8.069223 0.635645 6.239303
v 8.068127 0.582464 6.247283
v 8.068127 0.527267 6.247283
v 8.069223 0.474086 6.239303
v 7.984581 0.635645 6.215587
v 7.981372 0.582464 6.222975
v 7.981372 0.527267 6.222975
v 7.984581 0.474086 6.215587
v 7.909477 0.635645 6.169915
v 7.904393 0.582464 6.176163
v 7.904393 0.527267 6.176163
v 7.909477 0.474086 6.169915
v 7.849479 0.635645 6.105673
v 7.842898 0.582464 6.110318
v 7.842898 0.527267 6.110318
v 7.849479 0.474086 6.105673
v 7.809039 0.635645 6.027627
v 7.801449 0.582464 6.030324
v 7.801449 0.527267 6.030324
v 7.809039 0.474086 6.027627
v 7.791154 0.635645 5.941564
v 7.783118 0.582464 5.942113
v 7.783118 0.527267 5.942113
v 7.791154 0.474086 5.941564
v 7.797153 0.635645 5.853867
v 7.789267 0.582464 5.852228
v 7.789267 0.527267 5.852228
v 7.797153 0.474086 5.853867
v 7.826590 0.635645 5.771040
v 7.819438 0.582464 5.767334
v 7.819438 0.527267 5.767334
v 7.826590 0.474086 5.771040
v 7.877281 0.635645 5.699227
v 7.871394 0.582464 5.693729
v 7.871394 0.527267 5.693729
v 7.877281 0.474086 5.699227
v 7.945467 0.635645 5.643754
v 7.941282 0.582464 5.636871
v 7.941282 0.527267 5.636871
v 7.945467 0.474086 5.643754
v 8.026092 0.635645 5.608733
v 8.023918 0.582464 5.600977
v 8.023918 0.527267 5.600977
v 8.026092 0.474086 5.608733
vt 0.529819 0.229595
vt 0.153626 0.455428
vt 0.186070 0.017857
vt 0.298330 0.717398
vt 0.293607 0.756768
vt 0.231768 0.752058
vt 0.250968 0.000073
vt 0.318257 0.000457
vt 0.382948 0.018982
vt 0.440241 0.054273
vt 0.485889 0.103713
vt 0.516505 0.163635
vt 0.524843 0.296702
vt 0.501947 0.359977
vt 0.462828 0.414729
vt 0.410388 0.456896
vt 0.346347 0.483300
vt 0.278715 0.490068
vt 0.216189 0.482263
vt 0.101672 0.412665
vt 0.063181 0.357469
vt 0.041010 0.293936
vt 0.036801 0.226778
vt 0.050868 0.160974
vt 0.082167 0.101406
vt 0.128377 0.052491
vt 0.286150 0.763992
vt 0.277025 0.768829
vt 0.266913 0.770915
vt 0.256584 0.770155
vt 0.246829 0.766514
vt 0.238293 0.760384
vt 0.227343 0.742525
vt 0.225775 0.732236
vt 0.227129 0.721949
vt 0.231267 0.712413
vt 0.237532 0.704259
vt 0.245747 0.698245
vt 0.255332 0.694649
vt 0.265793 0.693902
vt 0.276304 0.696095
vt 0.285396 0.701107
vt 0.293005 0.708303
vt 0.301440 0.727433
vt 0.301669 0.737838
vt 0.298995 0.747866
vt 0.266923 0.771100
vt 0.282456 0.784504
vt 0.267827 0.787500
vt 0.286257 0.764144
vt 0.295708 0.777607
vt 0.306587 0.767336
vt 0.299166 0.747941
vt 0.314289 0.754506
vt 0.301854 0.737863
vt 0.318217 0.740046
vt 0.318062 0.725042
vt 0.298503 0.717324
vt 0.313871 0.710609
vt 0.306057 0.697807
vt 0.293155 0.708188
vt 0.295127 0.687588
vt 0.282100 0.680494
vt 0.252200 0.678466
vt 0.267028 0.677073
vt 0.238269 0.683608
vt 0.245662 0.698083
vt 0.226295 0.692227
vt 0.237405 0.704126
vt 0.217060 0.703777
vt 0.231108 0.712317
vt 0.211195 0.717404
vt 0.226950 0.721897
vt 0.209187 0.732161
vt 0.225589 0.732235
vt 0.211251 0.746969
vt 0.231606 0.752155
vt 0.217244 0.760732
vt 0.226649 0.772446
vt 0.238160 0.760519
vt 0.238849 0.781227
vt 0.246738 0.766679
vt 0.252915 0.786379
vt 0.256541 0.770337
vt 0.223297 0.912787
vt 0.277169 0.999927
vt 0.204162 0.993034
vt 0.237480 0.853031
vt 0.273719 0.917316
vt 0.246896 0.812559
vt 0.271103 0.855854
vt 0.269159 0.814317
vt 0.176100 0.894750
vt 0.135956 0.966593
vt 0.205927 0.841195
vt 0.225947 0.804824
vt 0.135668 0.864638
vt 0.077664 0.922707
vt 0.178801 0.821281
vt 0.207868 0.791718
vt 0.105009 0.824786
vt 0.033633 0.864778
vt 0.158113 0.794827
vt 0.193998 0.774252
vt 0.086374 0.778262
vt 0.007129 0.797269
vt 0.145372 0.763851
vt 0.185336 0.753740
vt 0.000073 0.725387
vt 0.141479 0.730703
vt 0.081084 0.728631
vt 0.182516 0.731723
vt 0.012860 0.654698
vt 0.146644 0.697874
vt 0.089414 0.679684
vt 0.185706 0.709841
vt 0.110557 0.635124
vt 0.044281 0.590681
vt 0.160380 0.667794
vt 0.194610 0.689694
vt 0.091569 0.538256
vt 0.181560 0.642624
vt 0.142688 0.598251
vt 0.208528 0.672718
vt 0.150589 0.501309
vt 0.183115 0.571658
vt 0.226428 0.660105
vt 0.208534 0.624087
vt 0.228523 0.556977
vt 0.247037 0.652710
vt 0.239318 0.613319
vt 0.271814 0.610835
vt 0.275247 0.554703
vt 0.268892 0.651104
vt 0.368111 0.582763
vt 0.413180 0.513490
vt 0.334018 0.632636
vt 0.323792 0.562146
vt 0.310721 0.665631
vt 0.304669 0.618333
vt 0.290973 0.656008
vt 0.405793 0.615970
vt 0.469055 0.562178
vt 0.358807 0.654962
vt 0.326992 0.680905
vt 0.432903 0.658771
vt 0.508928 0.624789
vt 0.376634 0.683462
vt 0.338645 0.699943
vt 0.447114 0.707619
vt 0.529692 0.696102
vt 0.386007 0.715900
vt 0.344789 0.721445
vt 0.447275 0.758578
vt 0.529819 0.770343
vt 0.386146 0.749740
vt 0.344897 0.743826
vt 0.433398 0.807625
vt 0.509444 0.841637
vt 0.377018 0.782352
vt 0.338926 0.765395
vt 0.406608 0.850951
vt 0.470302 0.904455
vt 0.359327 0.811225
vt 0.327318 0.784518
vt 0.369020 0.885243
vt 0.415543 0.954017
vt 0.334437 0.834157
vt 0.310950 0.799754
vt 0.323559 0.907920
vt 0.349466 0.986629
vt 0.304261 0.849411
vt 0.291061 0.809943
vt 0.276308 0.554764
vt 0.272611 0.610896
vt 0.267375 0.677102
vt 0.269418 0.651149
vt 0.277086 0.769004
vt 0.293751 0.756886
vt 0.301625 0.727405
vt 0.285508 0.700953
vt 0.227162 0.742577
vn 0.0000 -1.0000 0.0000
vn 0.0000 1.0000 0.0000
vn 0.0000 0.8191 -0.5737
vn 0.2589 0.2805 -0.9242
vn 0.0000 0.2805 -0.9598
vn 0.2980 0.8191 -0.4901
vn 0.4987 0.2805 -0.8201
vn 0.7015 0.2805 -0.6551
vn 0.5093 0.8191 -0.2639
vn 0.8522 0.2806 -0.4416
vn 0.5617 0.8191 -0.1167
vn 0.9398 0.2805 -0.1953
vn 0.9576 0.2805 0.0655
vn 0.5405 0.8191 0.1921
vn 0.9044 0.2805 0.3214
vn 0.7841 0.2805 0.5535
vn 0.4686 0.8191 0.3308
vn 0.6079 0.2806 0.7428
vn 0.2296 0.8184 0.5268
vn 0.3835 0.2805 0.8799
vn 0.0770 0.8193 0.5681
vn -0.1307 0.2805 0.9509
vn 0.1291 0.2806 0.9511
vn -0.0781 0.8191 0.5683
vn -0.3824 0.2805 0.8804
vn -0.2285 0.8191 0.5262
vn -0.6057 0.2805 0.7445
vn -0.3620 0.8191 0.4450
vn -0.7841 0.2805 0.5535
vn -0.4687 0.8191 0.3308
vn -0.9044 0.2805 0.3214
vn -0.5405 0.8191 0.1921
vn -0.9576 0.2805 0.0655
vn -0.5723 0.8191 0.0391
vn -0.9398 0.2805 -0.1953
vn -0.5093 0.8191 -0.2639
vn -0.8522 0.2805 -0.4416
vn -0.7015 0.2805 -0.6551
vn -0.4192 0.8191 -0.3916
vn -0.4987 0.2805 -0.8201
vn -0.2980 0.8191 -0.4901
vn -0.2589 0.2805 -0.9242
vn -0.1548 0.8191 -0.5524
vn -0.2589 -0.2806 -0.9242
vn 0.0000 -0.8191 -0.5737
vn -0.1548 -0.8191 -0.5524
vn -0.2690 -0.0746 -0.9602
vn 0.0000 -0.2805 -0.9598
vn -0.2690 0.0746 -0.9602
vn 0.0000 -0.0746 -0.9972
vn 0.0000 0.0746 -0.9972
vn -0.4987 -0.2805 -0.8201
vn -0.2980 -0.8191 -0.4901
vn -0.5181 -0.0746 -0.8520
vn -0.5181 0.0746 -0.8520
vn -0.7015 -0.2805 -0.6551
vn -0.4192 -0.8191 -0.3916
vn -0.7288 -0.0746 -0.6806
vn -0.7288 0.0746 -0.6806
vn -0.8522 -0.2805 -0.4416
vn -0.5093 -0.8191 -0.2639
vn -0.8854 -0.0746 -0.4588
vn -0.8854 0.0746 -0.4588
vn -0.9398 -0.2805 -0.1953
vn -0.5617 -0.8191 -0.1167
vn -0.9763 -0.0746 -0.2029
vn -0.9763 0.0746 -0.2029
vn -0.5723 -0.8191 0.0391
vn -0.9949 -0.0746 0.0680
vn -0.9576 -0.2805 0.0655
vn -0.9949 0.0746 0.0680
vn -0.5405 -0.8191 0.1921
vn -0.9396 -0.0746 0.3339
vn -0.9044 -0.2805 0.3214
vn -0.9396 0.0746 0.3339
vn -0.7841 -0.2805 0.5535
vn -0.4687 -0.8191 0.3308
vn -0.8147 -0.0746 0.5751
vn -0.8147 0.0746 0.5751
vn -0.3620 -0.8191 0.4450
vn -0.6293 -0.0746 0.7735
vn -0.6057 -0.2805 0.7445
vn -0.6293 0.0746 0.7735
vn -0.2285 -0.8191 0.5262
vn -0.3824 -0.2805 0.8804
vn -0.3973 0.0746 0.9146
vn -0.3973 -0.0746 0.9146
vn -0.1307 -0.2805 0.9509
vn -0.0781 -0.8191 0.5683
vn -0.1358 0.0746 0.9879
vn -0.1358 -0.0746 0.9879
vn 0.0770 -0.8193 0.5681
vn 0.1342 -0.0746 0.9881
vn 0.1291 -0.2806 0.9511
vn 0.1342 0.0746 0.9881
vn 0.6079 -0.2806 0.7428
vn 0.2296 -0.8184 0.5268
vn 0.3630 -0.8195 0.4433
vn 0.6315 -0.0746 0.7718
vn 0.3835 -0.2805 0.8799
vn 0.6315 0.0746 0.7718
vn 0.3984 -0.0746 0.9142
vn 0.3984 0.0746 0.9142
vn 0.7841 -0.2805 0.5535
vn 0.4686 -0.8191 0.3308
vn 0.8147 -0.0746 0.5751
vn 0.8147 0.0746 0.5751
vn 0.9044 -0.2805 0.3214
vn 0.5405 -0.8191 0.1921
vn 0.9396 -0.0746 0.3339
vn 0.9396 0.0746 0.3339
vn 0.9576 -0.2806 0.0655
vn 0.5723 -0.8191 0.0391
vn 0.9949 -0.0746 0.0680
vn 0.9949 0.0746 0.0680
vn 0.9398 -0.2805 -0.1953
vn 0.5617 -0.8191 -0.1167
vn 0.9763 -0.0746 -0.2029
vn 0.9763 0.0746 -0.2029
vn 0.8522 -0.2806 -0.4416
vn 0.5093 -0.8191 -0.2639
vn 0.8854 -0.0746 -0.4588
vn 0.8854 0.0746 -0.4588
vn 0.7015 -0.2805 -0.6551
vn 0.4192 -0.8191 -0.3916
vn 0.7288 -0.0746 -0.6806
vn 0.7288 0.0746 -0.6806
vn 0.4987 -0.2805 -0.8201
vn 0.2980 -0.8191 -0.4901
vn 0.5181 -0.0746 -0.8520
vn 0.5181 0.0746 -0.8520
vn 0.2589 -0.2805 -0.9242
vn 0.1548 -0.8191 -0.5524
vn 0.2690 -0.0746 -0.9602
vn 0.2690 0.0746 -0.9602
vn 0.1548 0.8191 -0.5524
vn 0.4192 0.8191 -0.3916
vn 0.5723 0.8191 0.0391
vn 0.3630 0.8195 0.4433
vn -0.5617 0.8191 -0.1167
usemtl None
s off
f 11/1/1 27/2/1 43/3/1
f 16/4/2 8/5/2 40/6/2
f 45/7/1 1/8/1 43/3/1
f 1/8/1 3/9/1 43/3/1
f 3/9/1 5/10/1 11/1/1
f 5/10/1 7/11/1 11/1/1
f 7/11/1 9/12/1 11/1/1
f 11/1/1 13/13/1 15/14/1
f 15/14/1 17/15/1 19/16/1
f 19/16/1 21/17/1 23/18/1
f 23/18/1 25/19/1 27/2/1
f 27/2/1 29/20/1 31/21/1
f 31/21/1 33/22/1 35/23/1
f 35/23/1 37/24/1 43/3/1
f 37/24/1 39/25/1 43/3/1
f 39/25/1 41/26/1 43/3/1
f 11/1/1 15/14/1 27/2/1
f 15/14/1 19/16/1 27/2/1
f 19/16/1 23/18/1 27/2/1
f 27/2/1 31/21/1 43/3/1
f 31/21/1 35/23/1 43/3/1
f 43/3/1 3/9/1 11/1/1
f 6/27/2 4/28/2 2/29/2
f 2/29/2 46/30/2 44/31/2
f 44/31/2 42/32/2 40/6/2
f 40/6/2 38/33/2 36/34/2
f 36/34/2 34/35/2 40/6/2
f 34/35/2 32/36/2 40/6/2
f 32/36/2 30/37/2 28/38/2
f 28/38/2 26/39/2 32/36/2
f 26/39/2 24/40/2 32/36/2
f 24/40/2 22/41/2 20/42/2
f 20/42/2 18/43/2 16/4/2
f 16/4/2 14/44/2 8/5/2
f 14/44/2 12/45/2 8/5/2
f 12/45/2 10/46/2 8/5/2
f 8/5/2 6/27/2 2/29/2
f 2/29/2 44/31/2 8/5/2
f 44/31/2 40/6/2 8/5/2
f 24/40/2 20/42/2 16/4/2
f 40/6/2 32/36/2 24/40/2
f 24/40/2 16/4/2 40/6/2
s 1
f 2/47/3 51/48/4 50/49/5
f 51/48/4 6/50/6 55/51/7
f 6/50/6 59/52/8 55/51/7
f 59/52/8 10/53/9 63/54/10
f 63/54/10 12/55/11 67/56/12
f 12/55/11 71/57/13 67/56/12
f 71/57/13 16/58/14 75/59/15
f 16/58/14 79/60/16 75/59/15
f 18/61/17 83/62/18 79/60/16
f 83/62/18 22/41/19 87/63/20
f 24/40/21 95/64/22 91/65/23
f 26/39/24 99/66/25 95/64/22
f 28/67/26 103/68/27 99/66/25
f 30/69/28 107/70/29 103/68/27
f 32/71/30 111/72/31 107/70/29
f 34/73/32 115/74/33 111/72/31
f 36/75/34 119/76/35 115/74/33
f 119/76/35 40/77/36 123/78/37
f 40/77/36 127/79/38 123/78/37
f 42/80/39 131/81/40 127/79/38
f 44/82/41 135/83/42 131/81/40
f 46/84/43 50/49/5 135/83/42
f 138/85/44 1/86/45 45/87/46
f 137/88/47 47/89/48 138/85/44
f 136/90/49 48/91/50 137/88/47
f 135/83/42 49/92/51 136/90/49
f 134/93/52 45/87/46 43/94/53
f 133/95/54 138/85/44 134/93/52
f 132/96/55 137/88/47 133/95/54
f 131/81/40 136/90/49 132/96/55
f 130/97/56 43/94/53 41/98/57
f 129/99/58 134/93/52 130/97/56
f 128/100/59 133/95/54 129/99/58
f 127/79/38 132/96/55 128/100/59
f 126/101/60 41/98/57 39/102/61
f 125/103/62 130/97/56 126/101/60
f 124/104/63 129/99/58 125/103/62
f 123/78/37 128/100/59 124/104/63
f 122/105/64 39/102/61 37/106/65
f 121/107/66 126/101/60 122/105/64
f 120/108/67 125/103/62 121/107/66
f 119/76/35 124/104/63 120/108/67
f 35/109/68 122/105/64 37/106/65
f 117/110/69 122/105/64 118/111/70
f 116/112/71 121/107/66 117/110/69
f 115/74/33 120/108/67 116/112/71
f 33/113/72 118/111/70 35/109/68
f 113/114/73 118/111/70 114/115/74
f 112/116/75 117/110/69 113/114/73
f 111/72/31 116/112/71 112/116/75
f 110/117/76 33/113/72 31/118/77
f 109/119/78 114/115/74 110/117/76
f 108/120/79 113/114/73 109/119/78
f 107/70/29 112/116/75 108/120/79
f 29/121/80 110/117/76 31/118/77
f 105/122/81 110/117/76 106/123/82
f 104/124/83 109/119/78 105/122/81
f 103/68/27 108/120/79 104/124/83
f 27/125/84 106/123/82 29/121/80
f 102/126/85 105/122/81 106/123/82
f 100/127/86 105/122/81 101/128/87
f 99/66/25 104/124/83 100/127/86
f 98/129/88 27/125/84 25/19/89
f 98/129/88 101/128/87 102/126/85
f 96/130/90 101/128/87 97/131/91
f 95/64/22 100/127/86 96/130/90
f 23/18/92 98/129/88 25/19/89
f 93/132/93 98/129/88 94/133/94
f 92/134/95 97/131/91 93/132/93
f 91/65/23 96/130/90 92/134/95
f 86/135/96 21/17/97 19/136/98
f 85/137/99 90/138/100 86/135/96
f 84/139/101 89/140/102 85/137/99
f 84/139/101 87/63/20 88/141/103
f 82/142/104 19/136/98 17/143/105
f 81/144/106 86/135/96 82/142/104
f 80/145/107 85/137/99 81/144/106
f 79/60/16 84/139/101 80/145/107
f 78/146/108 17/143/105 15/147/109
f 77/148/110 82/142/104 78/146/108
f 76/149/111 81/144/106 77/148/110
f 76/149/111 79/60/16 80/145/107
f 74/150/112 15/147/109 13/151/113
f 73/152/114 78/146/108 74/150/112
f 72/153/115 77/148/110 73/152/114
f 71/57/13 76/149/111 72/153/115
f 70/154/116 13/151/113 11/155/117
f 69/156/118 74/150/112 70/154/116
f 68/157/119 73/152/114 69/156/118
f 67/56/12 72/153/115 68/157/119
f 66/158/120 11/155/117 9/159/121
f 65/160/122 70/154/116 66/158/120
f 64/161/123 69/156/118 65/160/122
f 63/54/10 68/157/119 64/161/123
f 62/162/124 9/159/121 7/163/125
f 61/164/126 66/158/120 62/162/124
f 60/165/127 65/160/122 61/164/126
f 59/52/8 64/161/123 60/165/127
f 58/166/128 7/163/125 5/167/129
f 57/168/130 62/162/124 58/166/128
f 56/169/131 61/164/126 57/168/130
f 55/51/7 60/165/127 56/169/131
f 54/170/132 5/167/129 3/171/133
f 53/172/134 58/166/128 54/170/132
f 52/173/135 57/168/130 53/172/134
f 51/48/4 56/169/131 52/173/135
f 47/89/48 3/171/133 1/86/45
f 48/91/50 54/170/132 47/89/48
f 49/92/51 53/172/134 48/91/50
f 49/92/51 51/48/4 52/173/135
f 21/17/97 94/174/94 23/18/92
f 88/141/103 93/175/93 89/140/102
f 90/138/100 93/175/93 94/174/94
f 22/41/19 91/176/23 87/63/20
f 87/63/20 92/177/95 88/141/103
f 2/47/3 4/178/136 51/48/4
f 51/48/4 4/178/136 6/50/6
f 6/50/6 8/179/137 59/52/8
f 59/52/8 8/179/137 10/53/9
f 63/54/10 10/53/9 12/55/11
f 12/55/11 14/180/138 71/57/13
f 71/57/13 14/180/138 16/58/14
f 16/58/14 18/61/17 79/60/16
f 18/61/17 20/181/139 83/62/18
f 83/62/18 20/181/139 22/41/19
f 24/40/21 26/39/24 95/64/22
f 26/39/24 28/67/26 99/66/25
f 28/67/26 30/69/28 103/68/27
f 30/69/28 32/71/30 107/70/29
f 32/71/30 34/73/32 111/72/31
f 34/73/32 36/75/34 115/74/33
f 36/75/34 38/182/140 119/76/35
f 119/76/35 38/182/140 40/77/36
f 40/77/36 42/80/39 127/79/38
f 42/80/39 44/82/41 131/81/40
f 44/82/41 46/84/43 135/83/42
f 46/84/43 2/47/3 50/49/5
f 138/85/44 47/89/48 1/86/45
f 137/88/47 48/91/50 47/89/48
f 136/90/49 49/92/51 48/91/50
f 135/83/42 50/49/5 49/92/51
f 134/93/52 138/85/44 45/87/46
f 133/95/54 137/88/47 138/85/44
f 132/96/55 136/90/49 137/88/47
f 131/81/40 135/83/42 136/90/49
f 130/97/56 134/93/52 43/94/53
f 129/99/58 133/95/54 134/93/52
f 128/100/59 132/96/55 133/95/54
f 127/79/38 131/81/40 132/96/55
f 126/101/60 130/97/56 41/98/57
f 125/103/62 129/99/58 130/97/56
f 124/104/63 128/100/59 129/99/58
f 123/78/37 127/79/38 128/100/59
f 122/105/64 126/101/60 39/102/61
f 121/107/66 125/103/62 126/101/60
f 120/108/67 124/104/63 125/103/62
f 119/76/35 123/78/37 124/104/63
f 35/109/68 118/111/70 122/105/64
f 117/110/69 121/107/66 122/105/64
f 116/112/71 120/108/67 121/107/66
f 115/74/33 119/76/35 120/108/67
f 33/113/72 114/115/74 118/111/70
f 113/114/73 117/110/69 118/111/70
f 112/116/75 116/112/71 117/110/69
f 111/72/31 115/74/33 116/112/71
f 110/117/76 114/115/74 33/113/72
f 109/119/78 113/114/73 114/115/74
f 108/120/79 112/116/75 113/114/73
f 107/70/29 111/72/31 112/116/75
f 29/121/80 106/123/82 110/117/76
f 105/122/81 109/119/78 110/117/76
f 104/124/83 108/120/79 109/119/78
f 103/68/27 107/70/29 108/120/79
f 27/125/84 102/126/85 106/123/82
f 102/126/85 101/128/87 105/122/81
f 100/127/86 104/124/83 105/122/81
f 99/66/25 103/68/27 104/124/83
f 98/129/88 102/126/85 27/125/84
f 98/129/88 97/131/91 101/128/87
f 96/130/90 100/127/86 101/128/87
f 95/64/22 99/66/25 100/127/86
f 23/18/92 94/133/94 98/129/88
f 93/132/93 97/131/91 98/129/88
f 92/134/95 96/130/90 97/131/91
f 91/65/23 95/64/22 96/130/90
f 86/135/96 90/138/100 21/17/97
f 85/137/99 89/140/102 90/138/100
f 84/139/101 88/141/103 89/140/102
f 84/139/101 83/62/18 87/63/20
f 82/142/104 86/135/96 19/136/98
f 81/144/106 85/137/99 86/135/96
f 80/145/107 84/139/101 85/137/99
f 79/60/16 83/62/18 84/139/101
f 78/146/108 82/142/104 17/143/105
f 77/148/110 81/144/106 82/142/104
f 76/149/111 80/145/107 81/144/106
f 76/149/111 75/59/15 79/60/16
f 74/150/112 78/146/108 15/147/109
f 73/152/114 77/148/110 78/146/108
f 72/153/115 76/149/111 77/148/110
f 71/57/13 75/59/15 76/149/111
f 70/154/116 74/150/112 13/151/113
f 69/156/118 73/152/114 74/150/112
f 68/157/119 72/153/115 73/152/114
f 67/56/12 71/57/13 72/153/115
f 66/158/120 70/154/116 11/155/117
f 65/160/122 69/156/118 70/154/116
f 64/161/123 68/157/119 69/156/118
f 63/54/10 67/56/12 68/157/119
f 62/162/124 66/158/120 9/159/121
f 61/164/126 65/160/122 66/158/120
f 60/165/127 64/161/123 65/160/122
f 59/52/8 63/54/10 64/161/123
f 58/166/128 62/162/124 7/163/125
f 57/168/130 61/164/126 62/162/124
f 56/169/131 60/165/127 61/164/126
f 55/51/7 59/52/8 60/165/127
f 54/170/132 58/166/128 5/167/129
f 53/172/134 57/168/130 58/166/128
f 52/173/135 56/169/131 57/168/130
f 51/48/4 55/51/7 56/169/131
f 47/89/48 54/170/132 3/171/133
f 48/91/50 53/172/134 54/170/132
f 49/92/51 52/173/135 53/172/134
f 49/92/51 50/49/5 51/48/4
f 21/17/97 90/138/100 94/174/94
f 88/141/103 92/177/95 93/175/93
f 90/138/100 89/140/102 93/175/93
f 22/41/19 24/40/21 91/176/23
f 87/63/20 91/176/23 92/177/95
