# Blender v2.93.4 OBJ File: 'MarketStalls.blend'
# www.blender.org
mtllib CheeseSlice.mtl
o CheeseSlice.002_Cylinder.007
v 7.228201 0.449151 6.135131
v 7.228201 0.569373 6.135131
v 7.245279 0.449151 6.304791
v 7.245279 0.569373 6.304791
v 7.205654 0.449151 6.305741
v 7.205654 0.569373 6.305741
v 7.167586 0.449151 6.296196
v 7.167586 0.569373 6.296196
v 7.133505 0.449151 6.276735
v 7.133505 0.569373 6.276735
v 7.230579 0.470749 6.125649
v 7.231513 0.496104 6.121924
v 7.231513 0.522420 6.121924
v 7.230579 0.547775 6.125649
v 7.246876 0.547775 6.314435
v 7.247504 0.522420 6.318224
v 7.247504 0.496104 6.318224
v 7.246876 0.470749 6.314435
v 7.204590 0.547775 6.315459
v 7.204172 0.522420 6.319277
v 7.204172 0.496104 6.319277
v 7.204590 0.470749 6.315459
v 7.163939 0.547775 6.305267
v 7.162507 0.522420 6.308830
v 7.162507 0.496104 6.308830
v 7.163939 0.470749 6.305267
v 7.127546 0.547775 6.284485
v 7.125206 0.522420 6.287529
v 7.125206 0.496104 6.287529
v 7.127546 0.470749 6.284485
vt 0.815532 0.477652
vt 0.807496 0.549805
vt 0.416408 0.470458
vt 0.798162 0.657254
vt 0.416167 0.542618
vt 0.810213 0.604171
vt 0.417957 0.308908
vt 0.416878 0.390720
vt 0.001122 0.299373
vt 0.421019 0.159415
vt 0.803743 0.048722
vt 0.815251 0.101867
vt 0.819886 0.312165
vt 0.419342 0.228946
vt 0.817796 0.230290
vt 0.811994 0.156146
vt 0.819349 0.396033
vt 0.772149 0.705684
vt 0.005470 0.475665
vt 0.019933 0.548203
vt 0.000084 0.389169
vt 0.009701 0.211652
vt 0.027053 0.137689
vt 0.778242 0.000084
vt 0.923375 0.562743
vt 0.872607 0.481345
vt 0.931696 0.485858
vt 0.865181 0.556481
vt 0.874916 0.227135
vt 0.869606 0.152326
vt 0.877299 0.397420
vt 0.877970 0.311066
vt 0.926943 0.148055
vt 0.937775 0.309873
vt 0.933527 0.223597
vt 0.937158 0.399178
vt 0.985057 0.142005
vt 0.999916 0.401283
vt 0.999916 0.308299
vt 0.994545 0.218993
vt 0.982504 0.569960
vt 0.993509 0.491571
vn -0.8384 0.0362 -0.5439
vn 0.0000 1.0000 0.0000
vn 0.9967 0.0000 -0.0812
vn 0.0000 -1.0000 0.0000
vn -0.8217 0.1508 -0.5495
vn -0.8379 0.0490 -0.5436
vn -0.8415 0.0000 -0.5402
vn -0.8379 -0.0490 -0.5436
vn -0.8415 -0.0129 -0.5402
vn -0.8217 -0.1508 -0.5495
vn -0.8384 -0.0362 -0.5439
vn -0.8415 0.0129 -0.5402
vn 0.9951 0.0493 -0.0859
vn 0.9834 0.1518 -0.0990
vn 0.9957 0.0352 -0.0860
vn 0.9966 0.0125 -0.0812
vn 0.9966 -0.0125 -0.0812
vn 0.9957 -0.0352 -0.0860
vn 0.9834 -0.1518 -0.0990
vn 0.9951 -0.0493 -0.0859
vn -0.0634 0.8193 0.5698
vn -0.3580 0.2805 0.8906
vn -0.1061 0.2806 0.9539
vn -0.2140 0.8191 0.5322
vn -0.9427 0.2248 0.2464
vn -0.3580 -0.2805 0.8906
vn -0.7289 -0.6818 0.0615
vn -0.2140 -0.8191 0.5323
vn -0.9647 -0.0590 0.2567
vn -0.9427 -0.2248 0.2464
vn -0.3720 0.0746 0.9252
vn -0.3720 -0.0746 0.9252
vn -0.9647 0.0590 0.2567
vn -0.0634 -0.8193 0.5698
vn -0.1101 -0.0746 0.9911
vn -0.1061 -0.2806 0.9539
vn -0.1101 0.0746 0.9911
vn 0.6138 -0.6816 0.3984
vn 0.7290 0.0591 0.6819
vn 0.7290 -0.0591 0.6819
vn 0.7145 -0.2249 0.6625
vn 0.6138 0.6816 0.3984
vn 0.7145 0.2249 0.6625
vn -0.7289 0.6818 0.0615
usemtl None
s off
f 27/1/1 10/2/1 14/3/1
f 6/4/2 2/5/2 8/6/2
f 12/7/3 13/8/3 17/9/3
f 1/10/4 5/11/4 7/12/4
f 2/5/5 14/3/5 10/2/5
f 14/3/6 13/8/6 27/1/6
f 13/8/7 12/7/7 29/13/7
f 12/7/8 11/14/8 30/15/8
f 29/13/9 12/7/9 30/15/9
f 11/14/10 1/10/10 9/16/10
f 9/16/11 30/15/11 11/14/11
f 29/13/7 28/17/7 13/8/7
f 28/17/12 27/1/12 13/8/12
f 4/18/2 2/5/2 6/4/2
f 2/5/2 10/2/2 8/6/2
f 13/8/13 14/3/13 15/19/13
f 14/3/14 2/5/14 4/20/14
f 15/19/15 14/3/15 4/20/15
f 15/19/16 16/21/16 13/8/16
f 16/21/3 17/9/3 13/8/3
f 17/9/17 18/22/17 12/7/17
f 18/22/18 3/23/18 11/14/18
f 3/23/19 1/10/19 11/14/19
f 11/14/20 12/7/20 18/22/20
f 7/12/4 9/16/4 1/10/4
f 1/10/4 3/24/4 5/11/4
s 1
f 6/25/21 23/26/22 19/27/23
f 8/28/24 27/1/25 23/26/22
f 26/29/26 9/16/27 7/30/28
f 26/29/26 29/13/29 30/15/30
f 24/31/31 29/13/29 25/32/32
f 23/26/22 28/17/33 24/31/31
f 5/33/34 26/29/26 7/30/28
f 21/34/35 26/29/26 22/35/36
f 20/36/37 25/32/32 21/34/35
f 19/27/23 24/31/31 20/36/37
f 3/37/38 22/35/36 5/33/34
f 16/38/39 21/34/35 17/39/40
f 18/40/41 21/34/35 22/35/36
f 4/41/42 19/27/23 15/42/43
f 15/42/43 20/36/37 16/38/39
f 6/25/21 8/28/24 23/26/22
f 8/28/24 10/2/44 27/1/25
f 26/29/26 30/15/30 9/16/27
f 26/29/26 25/32/32 29/13/29
f 24/31/31 28/17/33 29/13/29
f 23/26/22 27/1/25 28/17/33
f 5/33/34 22/35/36 26/29/26
f 21/34/35 25/32/32 26/29/26
f 20/36/37 24/31/31 25/32/32
f 19/27/23 23/26/22 24/31/31
f 3/37/38 18/40/41 22/35/36
f 16/38/39 20/36/37 21/34/35
f 18/40/41 17/39/40 21/34/35
f 4/41/42 6/25/21 19/27/23
f 15/42/43 19/27/23 20/36/37
