# Blender v2.93.4 OBJ File: 'MarketStalls.blend'
# www.blender.org
mtllib ConcreteBarrier.mtl
o ConcreteBarrier.002_Cube.061
v -0.572128 -0.665862 -21.302015
v -0.572128 0.436237 -21.499266
v -0.572128 -0.665862 -21.915777
v -0.572128 0.436237 -21.718527
v 3.249620 -0.665862 -21.302015
v 3.249620 0.436237 -21.499266
v 3.249620 -0.665862 -21.915777
v 3.249620 0.436237 -21.718527
v -0.572128 -0.428208 -21.446236
v -0.572128 -0.428208 -21.771555
v 3.249620 -0.428208 -21.771555
v 3.249620 -0.428208 -21.446236
vt 0.339501 0.282840
vt 0.280370 0.051689
vt 0.351017 0.051689
vt 0.291886 0.282840
vt 0.060449 0.717162
vt 0.060448 0.282840
vt 0.280371 0.948312
vt 0.339501 0.717162
vt 0.351017 0.948312
vt 0.570939 0.282840
vt 0.570939 0.717162
vt 0.291886 0.717162
vt 0.631307 0.282840
vt 0.631307 0.717162
vt 0.382336 0.999920
vt 0.249052 0.999921
vt 0.000080 0.717162
vt 0.000079 0.282840
vt 0.382336 0.000079
vt 0.249051 0.000079
vn -1.0000 0.0000 0.0000
vn 0.0000 0.0612 -0.9981
vn 1.0000 -0.0000 0.0000
vn 0.0000 0.0612 0.9981
vn 0.0000 1.0000 0.0000
vn 0.0000 0.5188 0.8549
vn 0.0000 0.5188 -0.8549
usemtl None
s off
f 2/1/1 10/2/1 9/3/1
f 4/4/2 11/5/2 10/6/2
f 11/7/3 6/8/3 12/9/3
f 6/8/4 9/10/4 12/11/4
f 4/4/5 6/8/5 8/12/5
f 12/11/6 1/13/6 5/14/6
f 11/7/3 5/15/3 7/16/3
f 10/6/7 7/17/7 3/18/7
f 1/19/1 10/2/1 3/20/1
f 2/1/1 4/4/1 10/2/1
f 4/4/2 8/12/2 11/5/2
f 11/7/3 8/12/3 6/8/3
f 6/8/4 2/1/4 9/10/4
f 4/4/5 2/1/5 6/8/5
f 12/11/6 9/10/6 1/13/6
f 11/7/3 12/9/3 5/15/3
f 10/6/7 11/5/7 7/17/7
f 1/19/1 9/3/1 10/2/1
