# Blender v2.93.4 OBJ File: 'MarketStalls.blend'
# www.blender.org
mtllib CupCake.mtl
o CupCake.004_Cylinder.049
v 11.748603 0.447203 -3.943207
v 11.773478 0.519451 -3.961520
v 11.754579 0.447203 -3.931817
v 11.796850 0.531800 -3.948028
v 11.757767 0.447203 -3.919356
v 11.802483 0.531844 -3.925359
v 11.757995 0.447203 -3.906496
v 11.788778 0.519451 -3.901712
v 11.755251 0.447203 -3.893929
v 11.785047 0.519451 -3.884622
v 11.749683 0.447203 -3.882334
v 11.789142 0.539406 -3.857278
v 11.741591 0.447203 -3.872336
v 11.774046 0.539464 -3.839039
v 11.731412 0.447203 -3.864473
v 11.746211 0.519451 -3.836634
v 11.719694 0.447203 -3.859170
v 11.730274 0.519451 -3.829421
v 11.707068 0.447203 -3.856712
v 11.710572 0.536617 -3.810191
v 11.694217 0.447203 -3.857232
v 11.686822 0.536498 -3.810591
v 11.681831 0.447203 -3.860701
v 11.669992 0.519451 -3.831860
v 11.670580 0.447203 -3.866934
v 11.643328 0.534184 -3.828906
v 11.661069 0.447203 -3.875593
v 11.626199 0.534308 -3.845223
v 11.653811 0.447203 -3.886212
v 11.625382 0.519451 -3.872475
v 11.649198 0.447203 -3.898219
v 11.619108 0.519451 -3.888805
v 11.647478 0.447203 -3.910966
v 11.601202 0.536169 -3.910082
v 11.648745 0.447203 -3.923766
v 11.603293 0.536113 -3.933613
v 11.652928 0.447203 -3.935929
v 11.625186 0.519451 -3.950239
v 11.659804 0.447203 -3.946799
v 11.634538 0.519451 -3.965022
v 11.669003 0.447203 -3.955790
v 11.640677 0.537653 -3.992362
v 11.680025 0.447203 -3.962418
v 11.660827 0.537607 -4.004707
v 11.692280 0.447203 -3.966325
v 11.687445 0.519451 -3.996833
v 11.705106 0.447203 -3.967301
v 11.704887 0.519451 -3.998160
v 11.717810 0.447203 -3.965293
v 11.729980 0.531826 -4.008749
v 11.729710 0.447203 -3.960408
v 11.751579 0.531826 -3.999882
v 11.740161 0.447203 -3.952912
v 11.761997 0.519451 -3.974719
v 11.793821 0.520080 -3.880268
v 11.798593 0.520080 -3.902121
v 11.731988 0.520080 -3.819821
v 11.752366 0.520080 -3.829043
v 11.609395 0.520080 -3.887727
v 11.617417 0.520080 -3.866848
v 11.627840 0.520080 -3.972208
v 11.615883 0.520080 -3.953305
v 11.706618 0.520080 -4.007861
v 11.684315 0.520080 -4.006165
v 11.782260 0.520080 -3.965962
v 11.767580 0.520080 -3.982839
v 11.666187 0.520123 -3.822588
v 11.742887 0.620518 -3.900310
v 11.744677 0.620518 -3.908507
v 11.716615 0.620518 -3.873833
v 11.724259 0.620518 -3.877293
v 11.663295 0.620518 -3.902316
v 11.666304 0.620518 -3.894484
v 11.670695 0.620518 -3.938874
v 11.666210 0.620518 -3.931783
v 11.704438 0.620518 -3.954768
v 11.696072 0.620518 -3.954132
v 11.737337 0.620518 -3.937194
v 11.731831 0.620518 -3.943525
v 11.687701 0.620518 -3.875003
v 11.704971 0.533598 -4.006310
v 11.704906 0.555303 -3.999921
v 11.704728 0.578535 -3.982756
v 11.704549 0.610028 -3.965459
v 11.739264 0.610028 -3.951210
v 11.751287 0.578535 -3.963645
v 11.763222 0.555303 -3.975985
v 11.767663 0.533598 -3.980578
v 11.750379 0.533541 -3.828915
v 11.747335 0.555099 -3.834552
v 11.738811 0.576975 -3.850341
v 11.729944 0.608861 -3.866762
v 11.720169 0.608746 -3.862278
v 11.725692 0.576847 -3.844319
v 11.730987 0.555080 -3.827102
v 11.732869 0.533535 -3.820982
v 11.780270 0.533594 -3.966092
v 11.774967 0.555291 -3.962523
v 11.760686 0.578434 -3.952910
v 11.746269 0.609962 -3.943206
v 11.755782 0.609537 -3.906796
v 11.773461 0.577821 -3.904072
v 11.790771 0.555215 -3.901405
v 11.797100 0.533573 -3.900430
v 11.617605 0.533535 -3.868293
v 11.623245 0.555080 -3.871326
v 11.639110 0.576847 -3.879858
v 11.655657 0.608746 -3.888758
v 11.651851 0.608861 -3.898817
v 11.634005 0.576975 -3.893360
v 11.616845 0.555099 -3.888113
v 11.610720 0.533541 -3.886240
v 11.793014 0.533566 -3.881657
v 11.787009 0.555189 -3.883892
v 11.770502 0.577619 -3.890034
v 11.753572 0.609387 -3.896334
v 11.617434 0.533566 -3.953726
v 11.623277 0.555189 -3.951098
v 11.639338 0.577620 -3.943871
v 11.655813 0.609387 -3.936460
v 11.661591 0.609536 -3.945458
v 11.647095 0.577821 -3.955941
v 11.632904 0.555215 -3.966203
v 11.627714 0.533573 -3.969956
v 11.683080 0.608670 -3.863744
v 11.675913 0.576764 -3.846283
v 11.669056 0.555067 -3.829578
v 11.666625 0.533532 -3.823655
v 11.685822 0.533594 -4.004859
v 11.687089 0.555291 -3.998593
v 11.690498 0.578434 -3.981719
v 11.693940 0.609962 -3.964685
vt 0.058109 0.319600
vt 0.309950 0.350540
vt 0.306925 0.377211
vt 0.093852 0.281695
vt 0.315644 0.318460
vt 0.104382 0.213399
vt 0.318958 0.293175
vt 0.324061 0.269589
vt 0.122908 0.180243
vt 0.330049 0.248522
vt 0.137333 0.162277
vt 0.342269 0.219026
vt 0.144694 0.125696
vt 0.348213 0.198102
vt 0.356199 0.177953
vt 0.158551 0.093707
vt 0.365925 0.158157
vt 0.184646 0.059917
vt 0.380544 0.131335
vt 0.196678 0.000882
vt 0.391881 0.108541
vt 0.129913 0.999875
vt 0.378273 0.838948
vt 0.391881 0.869470
vt 0.121574 0.916005
vt 0.361681 0.803977
vt 0.087744 0.872665
vt 0.350341 0.777210
vt 0.072631 0.829397
vt 0.341077 0.750054
vt 0.334498 0.722054
vt 0.069264 0.756374
vt 0.323823 0.684090
vt 0.041507 0.705897
vt 0.317173 0.656071
vt 0.033964 0.661635
vt 0.312547 0.627926
vt 0.310708 0.599413
vt 0.039691 0.591441
vt 0.306015 0.559434
vt 0.022713 0.535872
vt 0.303813 0.530850
vt 0.022987 0.489667
vt 0.303571 0.500995
vt 0.306091 0.471272
vt 0.056670 0.414215
vt 0.306468 0.434147
vt 0.065614 0.775328
vt 0.044530 0.359780
vt 0.305488 0.404961
vt 0.032987 0.607258
vt 0.044689 0.439001
vt 0.131425 0.163601
vt 0.097447 0.259582
vt 0.121281 0.939009
vt 0.089810 0.204353
vt 0.133650 0.120314
vt 0.053468 0.836105
vt 0.068002 0.877430
vt 0.014267 0.665200
vt 0.022112 0.707371
vt 0.000125 0.488919
vt 0.002777 0.534332
vt 0.025859 0.353284
vt 0.040250 0.314949
vt 0.110849 0.175973
vt 0.182651 0.000125
vt 0.144138 0.089680
vt 0.110977 0.999602
vt 0.184101 0.044970
vt 0.594684 0.381292
vt 0.606295 0.447366
vt 0.579947 0.445738
vt 0.650263 0.521486
vt 0.655808 0.503431
vt 0.730544 0.632077
vt 0.636260 0.612855
vt 0.672544 0.602433
vt 0.651232 0.628043
vt 0.579017 0.464186
vt 0.617130 0.522211
vt 0.590236 0.532285
vt 0.722164 0.262428
vt 0.748892 0.288782
vt 0.731129 0.293185
vt 0.596724 0.550621
vt 0.658980 0.589994
vt 0.643825 0.310928
vt 0.675760 0.321399
vt 0.662441 0.332377
vt 0.724044 0.668458
vt 0.625334 0.377567
vt 0.617887 0.391943
vt 0.742463 0.256280
vt 0.813678 0.290490
vt 0.605935 0.464001
vt 0.658139 0.298015
vt 0.602319 0.364921
vt 0.623623 0.538391
vt 0.412193 0.622044
vt 0.443479 0.576939
vt 0.452901 0.608243
vt 0.502440 0.590138
vt 0.494008 0.562371
vt 0.554512 0.569241
vt 0.547043 0.546343
vt 0.503786 0.175775
vt 0.473380 0.297031
vt 0.436666 0.278314
vt 0.573907 0.239285
vt 0.518708 0.319996
vt 0.612789 0.278319
vt 0.565298 0.344497
vt 0.632751 0.071706
vt 0.559496 0.179486
vt 0.530282 0.147927
vt 0.681255 0.159553
vt 0.594418 0.218901
vt 0.705270 0.215184
vt 0.630118 0.261822
vt 0.392131 0.463565
vt 0.433916 0.433520
vt 0.432227 0.464397
vt 0.482744 0.464851
vt 0.484529 0.437263
vt 0.535956 0.464786
vt 0.537330 0.441949
vt 0.789424 0.000125
vt 0.687782 0.093524
vt 0.667645 0.052447
vt 0.832648 0.113110
vt 0.710374 0.146296
vt 0.835414 0.193117
vt 0.730343 0.205892
vt 0.825317 0.255611
vt 0.460495 0.325937
vt 0.422210 0.312394
vt 0.507740 0.345209
vt 0.556070 0.365018
vt 0.569636 0.876548
vt 0.524857 0.745402
vt 0.612371 0.850178
vt 0.662011 0.797697
vt 0.570089 0.709713
vt 0.702904 0.728459
vt 0.616315 0.666710
vt 0.536340 0.202551
vt 0.465909 0.738236
vt 0.504776 0.716467
vt 0.550755 0.684055
vt 0.598637 0.646471
vt 0.656423 0.109295
vt 0.402249 0.584979
vt 0.487404 0.771942
vt 0.395817 0.427856
vt 0.701888 0.455275
vt 0.719681 0.448941
vt 0.785826 0.457146
vt 0.801532 0.467636
vt 0.834449 0.525592
vt 0.835414 0.544454
vt 0.808582 0.605466
vt 0.794029 0.617504
vt 0.661373 0.587205
vt 0.814240 0.043557
vn 0.7746 -0.4846 -0.4064
vn 0.8554 -0.4694 -0.2189
vn 0.8739 -0.4859 -0.0155
vn 0.8535 -0.4867 0.1864
vn 0.7871 -0.4874 0.3780
vn 0.6943 -0.4498 0.5619
vn 0.5332 -0.4890 0.6903
vn 0.3596 -0.4895 0.7944
vn 0.1666 -0.4901 0.8556
vn -0.0358 -0.4602 0.8871
vn -0.2353 -0.4894 0.8397
vn -0.4226 -0.4893 0.7629
vn -0.5955 -0.4665 0.6540
vn -0.7197 -0.4900 0.4919
vn -0.8140 -0.4896 0.3127
vn -0.8645 -0.4890 0.1166
vn -0.8830 -0.4611 -0.0874
vn -0.8257 -0.4874 -0.2840
vn -0.7383 -0.4866 -0.4670
vn -0.6110 -0.4859 -0.6250
vn -0.4590 -0.4545 -0.7633
vn -0.2657 -0.4846 -0.8334
vn -0.0664 -0.4841 -0.8725
vn 0.1366 -0.4839 -0.8644
vn 0.3355 -0.4680 -0.8175
vn 0.8369 0.5411 0.0828
vn 0.5100 -0.4839 -0.7111
vn 0.6601 -0.4842 -0.5742
vn 0.4406 0.5185 0.7328
vn -0.2929 0.6365 0.7135
vn -0.6675 0.4974 -0.5541
vn -0.7428 0.6439 0.1833
vn 0.0358 0.5371 -0.8427
vn 0.5404 0.6258 -0.5625
vn -0.0645 0.9978 -0.0141
vn -0.0274 0.9978 -0.0605
vn 0.0620 0.9978 -0.0238
vn 0.0558 0.9978 0.0353
vn 0.0050 0.9978 0.0656
vn -0.0497 0.9978 0.0432
vn 0.0654 0.9978 0.0065
vn 0.0337 0.9979 0.0560
vn -0.0248 0.9979 0.0603
vn -0.0633 0.9979 0.0162
vn -0.0511 0.9978 -0.0413
vn 0.0027 0.9978 -0.0659
vn 0.0472 0.9975 -0.0530
vn 0.8093 -0.4715 -0.3503
vn 0.8578 -0.4682 -0.2122
vn 0.8778 -0.4702 -0.0911
vn 0.8535 -0.4866 0.1863
vn 0.7207 -0.4514 0.5262
vn 0.6880 -0.4481 0.5709
vn 0.6726 -0.4489 0.5883
vn 0.3595 -0.4896 0.7944
vn 0.0412 -0.4624 0.8857
vn -0.0126 -0.4638 0.8859
vn -0.1368 -0.4675 0.8733
vn -0.4930 -0.4736 0.7299
vn -0.6106 -0.4700 0.6374
vn -0.6668 -0.4689 0.5793
vn -0.8139 -0.4896 0.3127
vn -0.8872 -0.4614 -0.0069
vn -0.8848 -0.4595 -0.0776
vn -0.8681 -0.4635 -0.1777
vn -0.7383 -0.4867 -0.4670
vn -0.5162 -0.4551 -0.7256
vn -0.4665 -0.4532 -0.7596
vn -0.3904 -0.4568 -0.7993
vn -0.0664 -0.4842 -0.8724
vn 0.2038 -0.4702 -0.8587
vn 0.3355 -0.4681 -0.8175
vn 0.8255 0.5598 0.0720
vn 0.4582 -0.4703 -0.7542
vn 0.6602 -0.4842 -0.5742
vn 0.4428 0.5335 0.7207
vn -0.2929 0.6364 0.7135
vn -0.6826 0.4785 -0.5524
vn -0.7528 0.6294 0.1926
vn 0.0108 0.5821 -0.8130
vn 0.5473 0.5797 -0.6037
vn -0.0646 0.9978 -0.0141
vn -0.0496 0.9978 0.0432
vn 0.0653 0.9978 0.0065
vn 0.0036 0.9975 -0.0709
vn 0.0444 0.9978 -0.0488
vn 0.1268 0.5902 -0.7972
vn 0.2428 0.9040 -0.3518
vn 0.4698 0.5902 -0.6564
vn 0.3797 0.9057 0.1884
vn 0.4268 0.9042 -0.0154
vn -0.1683 0.8964 0.4101
vn 0.4879 0.6018 0.6323
vn 0.0750 0.9058 0.4170
vn 0.1498 0.6055 0.7815
vn 0.7144 0.5922 -0.3725
vn 0.8042 0.5942 -0.0136
vn -0.7914 0.6017 0.1072
vn -0.3464 0.9058 0.2441
vn -0.4228 0.9048 0.0498
vn 0.7206 0.5989 0.3493
vn 0.2658 0.9048 0.3325
vn -0.5627 0.5942 -0.5748
vn -0.4024 0.9058 -0.1326
vn -0.2929 0.9042 -0.3108
vn -0.3025 0.6043 0.7370
vn -0.1351 0.9049 -0.4037
vn 0.0744 0.9040 -0.4210
vn -0.6557 0.6055 0.4509
vn 0.3797 0.9048 -0.1924
vn -0.7581 0.5990 -0.2577
vn -0.2467 0.5922 -0.7671
vn 0.7262 0.5879 0.3563
vn 0.9930 -0.1174 -0.0095
vn 0.8974 -0.1200 0.4246
vn 0.8070 0.4476 0.3852
vn 0.8972 0.4414 -0.0161
vn 0.7452 0.5605 0.3611
vn 0.8338 0.5518 -0.0170
vn -0.5538 0.5920 -0.5854
vn -0.2959 -0.1125 -0.9485
vn -0.2516 0.5955 -0.7629
vn -0.6271 0.4414 -0.6417
vn -0.2720 0.4355 -0.8581
vn -0.5814 0.5518 -0.5979
vn -0.2581 0.5428 -0.7992
vn -0.8064 0.5836 0.0955
vn -0.9369 -0.1199 -0.3283
vn -0.7671 0.5879 -0.2567
vn -0.8832 0.4535 0.1190
vn -0.8449 0.4476 -0.2929
vn -0.8139 0.5710 0.1069
vn -0.7841 0.5605 -0.2665
vn 0.7150 0.5955 -0.3661
vn 0.5851 -0.1112 -0.8032
vn 0.8770 -0.1125 -0.4671
vn 0.7964 0.4355 -0.4196
vn 0.5261 0.4321 -0.7324
vn 0.7452 0.5428 -0.3873
vn 0.4892 0.5391 -0.6856
vn -0.2978 0.6203 0.7255
vn -0.8222 -0.1274 0.5547
vn -0.6675 0.5805 0.4663
vn -0.3382 0.4546 0.8239
vn -0.7350 0.4574 0.5005
vn -0.3081 0.5846 0.7505
vn -0.6727 0.5775 0.4624
vn 0.1480 -0.1112 -0.9827
vn 0.1357 0.5974 -0.7904
vn 0.1402 0.4322 -0.8908
vn 0.1335 0.5391 -0.8316
vn 0.1953 -0.1274 0.9724
vn -0.3767 -0.1254 0.9178
vn 0.1714 0.4574 0.8726
vn 0.1538 0.5775 0.8017
vn -0.7000 -0.1174 -0.7044
vn 0.5067 0.5837 0.6344
vn 0.6001 -0.1257 0.7899
vn 0.5449 0.4535 0.7053
vn 0.5041 0.5711 0.6479
vn -0.9821 -0.1258 0.1405
vn 0.8054 0.5921 -0.0275
vn 0.1474 0.5806 0.8007
vn 0.4587 0.5973 -0.6579
usemtl None
s off
f 65/1/1 3/2/1 1/3/1
f 4/4/2 5/5/2 3/2/2
f 5/5/3 56/6/3 7/7/3
f 56/6/4 9/8/4 7/7/4
f 55/9/5 11/10/5 9/8/5
f 12/11/6 13/12/6 11/10/6
f 13/12/7 58/13/7 15/14/7
f 58/13/8 17/15/8 15/14/8
f 57/16/9 19/17/9 17/15/9
f 20/18/10 21/19/10 19/17/10
f 21/19/11 67/20/11 23/21/11
f 67/22/12 25/23/12 23/24/12
f 25/23/13 28/25/13 27/26/13
f 27/26/14 60/27/14 29/28/14
f 29/28/15 59/29/15 31/30/15
f 59/29/16 33/31/16 31/30/16
f 33/31/17 36/32/17 35/33/17
f 35/33/18 62/34/18 37/35/18
f 37/35/19 61/36/19 39/37/19
f 61/36/20 41/38/20 39/37/20
f 41/38/21 44/39/21 43/40/21
f 43/40/22 64/41/22 45/42/22
f 45/42/23 63/43/23 47/44/23
f 63/43/24 49/45/24 47/44/24
f 49/45/25 52/46/25 51/47/25
f 62/34/26 34/48/26 59/29/26
f 51/47/27 66/49/27 53/50/27
f 66/49/28 1/3/28 53/50/28
f 64/41/29 42/51/29 61/36/29
f 63/43/30 52/46/30 50/52/30
f 55/9/31 14/53/31 12/11/31
f 65/1/32 6/54/32 4/4/32
f 67/20/33 20/18/33 57/16/33
f 67/22/34 28/25/34 26/55/34
f 8/56/35 55/9/35 56/6/35
f 16/57/36 57/16/36 58/13/36
f 32/58/37 60/27/37 30/59/37
f 40/60/38 62/34/38 38/61/38
f 48/62/39 64/41/39 46/63/39
f 54/64/40 65/1/40 66/49/40
f 38/61/41 59/29/41 32/58/41
f 46/63/42 61/36/42 40/60/42
f 54/64/43 63/43/43 48/62/43
f 2/65/44 56/6/44 65/1/44
f 10/66/45 58/13/45 55/9/45
f 24/67/46 57/16/46 18/68/46
f 24/69/47 60/27/47 67/22/47
f 65/1/48 4/4/48 3/2/48
f 4/4/49 6/54/49 5/5/49
f 5/5/50 6/54/50 56/6/50
f 56/6/51 55/9/51 9/8/51
f 55/9/52 12/11/52 11/10/52
f 12/11/53 14/53/53 13/12/53
f 13/12/54 14/53/54 58/13/54
f 58/13/55 57/16/55 17/15/55
f 57/16/56 20/18/56 19/17/56
f 20/18/57 22/70/57 21/19/57
f 21/19/58 22/70/58 67/20/58
f 67/22/59 26/55/59 25/23/59
f 25/23/60 26/55/60 28/25/60
f 27/26/61 28/25/61 60/27/61
f 29/28/62 60/27/62 59/29/62
f 59/29/63 34/48/63 33/31/63
f 33/31/64 34/48/64 36/32/64
f 35/33/65 36/32/65 62/34/65
f 37/35/66 62/34/66 61/36/66
f 61/36/67 42/51/67 41/38/67
f 41/38/68 42/51/68 44/39/68
f 43/40/69 44/39/69 64/41/69
f 45/42/70 64/41/70 63/43/70
f 63/43/71 50/52/71 49/45/71
f 49/45/72 50/52/72 52/46/72
f 62/34/73 36/32/73 34/48/73
f 51/47/74 52/46/74 66/49/74
f 66/49/75 65/1/75 1/3/75
f 64/41/76 44/39/76 42/51/76
f 63/43/77 66/49/77 52/46/77
f 55/9/78 58/13/78 14/53/78
f 65/1/79 56/6/79 6/54/79
f 67/20/80 22/70/80 20/18/80
f 67/22/81 60/27/81 28/25/81
f 8/56/82 10/66/82 55/9/82
f 16/57/36 18/68/36 57/16/36
f 32/58/37 59/29/37 60/27/37
f 40/60/38 61/36/38 62/34/38
f 48/62/39 63/43/39 64/41/39
f 54/64/83 2/65/83 65/1/83
f 38/61/84 62/34/84 59/29/84
f 46/63/42 64/41/42 61/36/42
f 54/64/43 66/49/43 63/43/43
f 2/65/44 8/56/44 56/6/44
f 10/66/45 16/57/45 58/13/45
f 24/67/85 67/20/85 57/16/85
f 24/69/86 30/59/86 60/27/86
s 1
f 84/71/87 79/72/88 85/73/89
f 68/74/90 69/75/91 80/76/92
f 92/77/93 70/78/94 93/79/95
f 100/80/96 69/81/91 101/82/97
f 109/83/98 73/84/99 72/85/100
f 116/86/101 71/87/102 92/77/93
f 121/88/103 75/89/104 74/90/105
f 93/79/95 80/76/92 125/91/106
f 84/71/87 77/92/107 76/93/108
f 108/94/109 80/95/92 73/84/99
f 85/73/89 78/96/110 100/80/96
f 120/97/111 72/85/100 75/89/104
f 132/98/112 74/90/105 77/92/107
f 101/82/97 68/99/90 116/86/101
f 10/100/113 104/101/114 113/102/115
f 104/101/114 114/103/116 113/102/115
f 103/104/117 115/105/118 114/103/116
f 102/106/119 116/86/101 115/105/118
f 40/107/120 129/108/121 46/109/122
f 129/108/121 123/110/123 130/111/124
f 130/111/124 122/112/125 131/113/126
f 131/113/126 121/88/103 132/98/112
f 32/114/127 117/115/128 38/116/129
f 117/115/128 111/117/130 118/118/131
f 118/118/131 110/119/132 119/120/133
f 119/120/133 109/83/98 120/97/111
f 2/121/134 88/122/135 97/123/136
f 88/122/135 98/124/137 97/123/136
f 87/125/138 99/126/139 98/124/137
f 86/127/140 100/80/96 99/126/139
f 24/128/141 105/129/142 30/130/143
f 105/129/142 127/131/144 106/132/145
f 106/132/145 126/133/146 107/134/147
f 107/134/147 125/135/106 108/94/109
f 46/109/122 81/136/148 48/137/149
f 81/136/148 130/111/124 82/138/150
f 82/138/150 131/113/126 83/139/151
f 83/139/151 132/98/112 84/71/87
f 24/140/141 96/141/152 128/142/153
f 96/141/152 127/143/144 128/142/153
f 95/144/154 126/145/146 127/143/144
f 94/146/155 125/91/106 126/145/146
f 38/116/129 124/147/156 40/107/120
f 124/147/156 118/118/131 123/110/123
f 123/110/123 119/120/133 122/112/125
f 122/112/125 120/97/111 121/88/103
f 16/148/157 113/102/115 89/149/158
f 113/102/115 90/150/159 89/149/158
f 114/103/116 91/151/160 90/150/159
f 115/105/118 92/77/93 91/151/160
f 30/130/143 112/152/161 32/114/127
f 112/152/161 106/132/145 111/117/130
f 111/117/130 107/134/147 110/119/132
f 110/119/132 108/94/109 109/83/98
f 8/153/162 97/123/136 104/101/114
f 97/123/136 103/104/117 104/101/114
f 98/124/137 102/106/119 103/104/117
f 99/126/139 101/82/97 102/106/119
f 18/154/163 89/149/158 96/141/152
f 89/149/158 95/144/154 96/141/152
f 90/150/159 94/146/155 95/144/154
f 91/151/160 93/79/95 94/146/155
f 48/137/149 88/122/135 54/155/164
f 88/122/135 82/138/150 87/125/138
f 87/125/138 83/139/151 86/127/140
f 86/127/140 84/71/87 85/73/89
f 84/71/87 76/93/108 79/72/88
f 69/75/91 78/156/110 80/76/92
f 78/156/110 79/157/88 80/76/92
f 79/157/88 76/158/108 80/76/92
f 76/158/108 77/159/107 80/76/92
f 77/159/107 74/160/105 80/76/92
f 74/160/105 75/161/104 80/76/92
f 75/161/104 72/162/100 80/76/92
f 72/162/100 73/163/99 80/76/92
f 80/76/92 70/78/94 71/164/102
f 71/164/102 68/74/90 80/76/92
f 92/77/93 71/87/102 70/78/94
f 100/80/96 78/96/110 69/81/91
f 109/83/98 108/94/109 73/84/99
f 116/86/101 68/99/90 71/87/102
f 121/88/103 120/97/111 75/89/104
f 93/79/95 70/78/94 80/76/92
f 84/71/87 132/98/112 77/92/107
f 108/94/109 125/135/106 80/95/92
f 85/73/89 79/72/88 78/96/110
f 120/97/111 109/83/98 72/85/100
f 132/98/112 121/88/103 74/90/105
f 101/82/97 69/81/91 68/99/90
f 10/100/113 8/153/162 104/101/114
f 104/101/114 103/104/117 114/103/116
f 103/104/117 102/106/119 115/105/118
f 102/106/119 101/82/97 116/86/101
f 40/107/120 124/147/156 129/108/121
f 129/108/121 124/147/156 123/110/123
f 130/111/124 123/110/123 122/112/125
f 131/113/126 122/112/125 121/88/103
f 32/114/127 112/152/161 117/115/128
f 117/115/128 112/152/161 111/117/130
f 118/118/131 111/117/130 110/119/132
f 119/120/133 110/119/132 109/83/98
f 2/121/134 54/155/164 88/122/135
f 88/122/135 87/125/138 98/124/137
f 87/125/138 86/127/140 99/126/139
f 86/127/140 85/73/89 100/80/96
f 24/128/141 128/165/153 105/129/142
f 105/129/142 128/165/153 127/131/144
f 106/132/145 127/131/144 126/133/146
f 107/134/147 126/133/146 125/135/106
f 46/109/122 129/108/121 81/136/148
f 81/136/148 129/108/121 130/111/124
f 82/138/150 130/111/124 131/113/126
f 83/139/151 131/113/126 132/98/112
f 24/140/141 18/154/163 96/141/152
f 96/141/152 95/144/154 127/143/144
f 95/144/154 94/146/155 126/145/146
f 94/146/155 93/79/95 125/91/106
f 38/116/129 117/115/128 124/147/156
f 124/147/156 117/115/128 118/118/131
f 123/110/123 118/118/131 119/120/133
f 122/112/125 119/120/133 120/97/111
f 16/148/157 10/100/113 113/102/115
f 113/102/115 114/103/116 90/150/159
f 114/103/116 115/105/118 91/151/160
f 115/105/118 116/86/101 92/77/93
f 30/130/143 105/129/142 112/152/161
f 112/152/161 105/129/142 106/132/145
f 111/117/130 106/132/145 107/134/147
f 110/119/132 107/134/147 108/94/109
f 8/153/162 2/121/134 97/123/136
f 97/123/136 98/124/137 103/104/117
f 98/124/137 99/126/139 102/106/119
f 99/126/139 100/80/96 101/82/97
f 18/154/163 16/148/157 89/149/158
f 89/149/158 90/150/159 95/144/154
f 90/150/159 91/151/160 94/146/155
f 91/151/160 92/77/93 93/79/95
f 48/137/149 81/136/148 88/122/135
f 88/122/135 81/136/148 82/138/150
f 87/125/138 82/138/150 83/139/151
f 86/127/140 83/139/151 84/71/87
