# Blender v2.93.4 OBJ File: 'MarketStalls.blend'
# www.blender.org
mtllib Pear.mtl
o Pear_Sphere.051
v 0.217561 0.733455 -0.871454
v 0.141719 0.833292 -0.826823
v 0.150865 0.836001 -0.832078
v 0.216117 0.779545 -0.838631
v 0.234363 0.768816 -0.842527
v 0.246023 0.752736 -0.841252
v 0.251992 0.734928 -0.836690
v 0.253413 0.716865 -0.829959
v 0.250029 0.700112 -0.821585
v 0.239357 0.691579 -0.813259
v 0.223263 0.689428 -0.805080
v 0.142056 0.834003 -0.823986
v 0.151973 0.838336 -0.822763
v 0.220083 0.787904 -0.805279
v 0.239304 0.779231 -0.800974
v 0.251267 0.763788 -0.797158
v 0.257057 0.745603 -0.794098
v 0.257954 0.726436 -0.791772
v 0.253737 0.707927 -0.790405
v 0.241979 0.697105 -0.791212
v 0.224620 0.692288 -0.793667
v 0.140762 0.833933 -0.821343
v 0.147728 0.838093 -0.814080
v 0.204956 0.786881 -0.774165
v 0.220478 0.777912 -0.762201
v 0.231289 0.762389 -0.756013
v 0.237761 0.744252 -0.754355
v 0.240653 0.725224 -0.756140
v 0.239611 0.706937 -0.761311
v 0.231990 0.696405 -0.770639
v 0.219449 0.691926 -0.783018
v 0.138354 0.833057 -0.819893
v 0.139816 0.835227 -0.809321
v 0.176558 0.776774 -0.757155
v 0.185076 0.765364 -0.741017
v 0.193722 0.749073 -0.733533
v 0.201473 0.731389 -0.732641
v 0.208118 0.713692 -0.736672
v 0.213047 0.697522 -0.745416
v 0.213207 0.689747 -0.759400
v 0.209726 0.688480 -0.777200
v 0.135729 0.831761 -0.820200
v 0.131195 0.830971 -0.810329
v 0.145692 0.761536 -0.760765
v 0.146619 0.746379 -0.745514
v 0.152913 0.728927 -0.738306
v 0.162055 0.711930 -0.737251
v 0.172777 0.696245 -0.740805
v 0.184191 0.683276 -0.748790
v 0.192802 0.679674 -0.761786
v 0.199164 0.683266 -0.778435
v 0.141637 0.823777 -0.822900
v 0.133889 0.830540 -0.822147
v 0.125157 0.826950 -0.816720
v 0.124148 0.746988 -0.783615
v 0.119798 0.728208 -0.773975
v 0.124452 0.709645 -0.768507
v 0.134563 0.693305 -0.766423
v 0.148129 0.679547 -0.766960
v 0.164065 0.669642 -0.770146
v 0.178572 0.670033 -0.776887
v 0.191798 0.678275 -0.786252
v 0.133561 0.829809 -0.824980
v 0.124074 0.824563 -0.826025
v 0.120198 0.738593 -0.816960
v 0.114857 0.717794 -0.815528
v 0.119208 0.698593 -0.812602
v 0.129499 0.682630 -0.809015
v 0.143588 0.669976 -0.805147
v 0.160358 0.661827 -0.801326
v 0.175950 0.664507 -0.798934
v 0.190441 0.675415 -0.797664
v 0.134846 0.829899 -0.827626
v 0.128295 0.824859 -0.834718
v 0.135308 0.739651 -0.848081
v 0.133683 0.719112 -0.854302
v 0.139185 0.699993 -0.853747
v 0.148795 0.683981 -0.848758
v 0.160888 0.671187 -0.840780
v 0.174484 0.662817 -0.830419
v 0.185938 0.665207 -0.819506
v 0.195611 0.675777 -0.808313
v 0.206202 0.686673 -0.796215
v 0.137253 0.830776 -0.829076
v 0.136207 0.827724 -0.839477
v 0.163707 0.749759 -0.865091
v 0.169085 0.731661 -0.875486
v 0.176753 0.713309 -0.876226
v 0.185083 0.696844 -0.870472
v 0.193423 0.682719 -0.860247
v 0.201048 0.672232 -0.846315
v 0.204722 0.671865 -0.830746
v 0.205334 0.679223 -0.814132
v 0.139879 0.832072 -0.828769
v 0.144828 0.831980 -0.838469
v 0.194573 0.764997 -0.861481
v 0.207541 0.750646 -0.870988
v 0.224501 0.716303 -0.865862
v 0.228764 0.700167 -0.856114
v 0.229904 0.686478 -0.842940
v 0.225126 0.681938 -0.828360
v 0.215896 0.684438 -0.812896
v 0.196163 0.794947 -0.835866
v 0.164848 0.830745 -0.836275
v 0.182624 0.810109 -0.835915
v 0.166806 0.834872 -0.819806
v 0.199190 0.801327 -0.810410
v 0.185178 0.815493 -0.814436
v 0.159322 0.834398 -0.804449
v 0.187631 0.800574 -0.786668
v 0.175424 0.814860 -0.794404
v 0.145314 0.829376 -0.796043
v 0.165969 0.792832 -0.773679
v 0.157148 0.808325 -0.783445
v 0.130072 0.821852 -0.797826
v 0.142410 0.781201 -0.776435
v 0.137270 0.798511 -0.785769
v 0.119420 0.814699 -0.809115
v 0.125953 0.770125 -0.793881
v 0.123383 0.789169 -0.800490
v 0.117484 0.810523 -0.825574
v 0.122952 0.763690 -0.819326
v 0.120852 0.783736 -0.821959
v 0.124945 0.811045 -0.840942
v 0.134485 0.764498 -0.843079
v 0.130583 0.784418 -0.842001
v 0.138953 0.816067 -0.849347
v 0.156147 0.772240 -0.856067
v 0.148859 0.790953 -0.852960
v 0.154195 0.823592 -0.847565
v 0.179706 0.783870 -0.853312
v 0.168737 0.800766 -0.850635
v 0.105601 0.870622 -0.838804
v 0.110798 0.862754 -0.832262
v 0.121257 0.852976 -0.827517
v 0.110762 0.861595 -0.834968
v 0.121217 0.851859 -0.830223
v 0.112047 0.861685 -0.837615
v 0.122503 0.851949 -0.832870
v 0.114163 0.862989 -0.839192
v 0.124622 0.853212 -0.834446
v 0.117835 0.867982 -0.834591
v 0.128222 0.858108 -0.829883
v 0.116535 0.867904 -0.831951
v 0.126924 0.858033 -0.827242
v 0.112207 0.864662 -0.830502
v 0.122643 0.854837 -0.825769
v 0.116349 0.864967 -0.839075
v 0.126788 0.855145 -0.834341
v 0.117767 0.866861 -0.837311
v 0.128171 0.857006 -0.832594
v 0.114403 0.866624 -0.830380
v 0.124807 0.856770 -0.825664
vt 0.700000 0.500000
vt 0.600000 0.416667
vt 0.700000 0.416667
vt 0.600000 0.723372
vt 0.500000 0.666667
vt 0.600000 0.666667
vt 0.700000 0.166667
vt 0.600000 0.083333
vt 0.700000 0.083333
vt 0.700000 0.916667
vt 0.650000 1.000000
vt 0.600000 0.916667
vt 0.600000 0.333333
vt 0.700000 0.333333
vt 0.700000 0.583333
vt 0.600000 0.583333
vt 0.650000 0.000000
vt 0.700000 0.833333
vt 0.600000 0.833333
vt 0.700000 0.250000
vt 0.600000 0.250000
vt 0.600000 0.500000
vt 0.500000 0.833333
vt 0.400000 0.782087
vt 0.500000 0.782087
vt 0.600000 0.166667
vt 0.550000 0.000000
vt 0.500000 0.083333
vt 0.500000 0.916667
vt 0.500000 0.250000
vt 0.500000 0.500000
vt 0.700000 0.666667
vt 0.500000 0.166667
vt 0.500000 0.416667
vt 0.700000 0.782087
vt 0.600000 0.782087
vt 0.550000 1.000000
vt 0.500000 0.333333
vt 0.500000 0.583333
vt 0.300000 0.833333
vt 0.300000 0.782087
vt 0.400000 0.083333
vt 0.450000 1.000000
vt 0.400000 0.916667
vt 0.400000 0.333333
vt 0.400000 0.583333
vt 0.450000 0.000000
vt 0.400000 0.833333
vt 0.400000 0.250000
vt 0.400000 0.500000
vt 0.500000 0.723372
vt 0.400000 0.666667
vt 0.400000 0.166667
vt 0.400000 0.416667
vt 0.300000 0.723372
vt 0.300000 0.666667
vt 0.300000 0.250000
vt 0.300000 0.166667
vt 0.300000 0.416667
vt 0.200000 0.782087
vt 0.300000 0.083333
vt 0.350000 1.000000
vt 0.300000 0.916667
vt 0.300000 0.333333
vt 0.300000 0.583333
vt 0.350000 0.000000
vt 0.300000 0.500000
vt 0.200000 0.666667
vt 0.200000 0.583333
vt 0.250000 0.000000
vt 0.200000 0.083333
vt 0.200000 0.833333
vt 0.200000 0.250000
vt 0.200000 0.500000
vt 0.200000 0.166667
vt 0.200000 0.416667
vt 0.100000 0.782087
vt 0.250000 1.000000
vt 0.200000 0.916667
vt 0.200000 0.333333
vt 0.000000 0.833333
vt 0.000000 0.782087
vt 0.100000 0.083333
vt 0.150000 1.000000
vt 0.100000 0.916667
vt 0.100000 0.333333
vt 0.100000 0.583333
vt 0.150000 0.000000
vt 0.100000 0.833333
vt 0.100000 0.250000
vt 0.100000 0.500000
vt 0.200000 0.723372
vt 0.100000 0.666667
vt 0.100000 0.166667
vt 0.100000 0.416667
vt 0.000000 0.500000
vt 0.000000 0.723372
vt 0.000000 0.666667
vt 0.000000 0.250000
vt 0.000000 0.166667
vt 0.000000 0.416667
vt 1.000000 0.782087
vt 0.900000 0.833333
vt 0.900000 0.782087
vt 0.000000 0.083333
vt 0.050000 1.000000
vt 0.000000 0.916667
vt 0.000000 0.333333
vt 0.000000 0.583333
vt 0.050000 0.000000
vt 1.000000 0.583333
vt 0.900000 0.666667
vt 0.900000 0.583333
vt 0.950000 0.000000
vt 1.000000 0.083333
vt 0.900000 0.083333
vt 1.000000 0.916667
vt 1.000000 0.833333
vt 1.000000 0.333333
vt 0.900000 0.250000
vt 1.000000 0.250000
vt 0.900000 0.500000
vt 1.000000 0.500000
vt 1.000000 0.666667
vt 0.900000 0.723372
vt 1.000000 0.166667
vt 0.900000 0.166667
vt 1.000000 0.416667
vt 0.900000 0.416667
vt 0.800000 0.782087
vt 0.950000 1.000000
vt 0.900000 0.916667
vt 0.900000 0.333333
vt 0.800000 0.500000
vt 0.800000 0.416667
vt 0.800000 0.083333
vt 0.850000 1.000000
vt 0.800000 0.916667
vt 0.800000 0.333333
vt 0.800000 0.583333
vt 0.850000 0.000000
vt 0.800000 0.833333
vt 0.800000 0.250000
vt 0.800000 0.666667
vt 0.800000 0.166667
vt 0.700000 0.723372
vt 0.750000 1.000000
vt 0.750000 0.000000
vt 0.600000 0.750000
vt 0.500000 0.750000
vt 0.400000 0.750000
vt 0.400000 0.723372
vt 0.300000 0.750000
vt 0.200000 0.750000
vt 0.100000 0.750000
vt 0.100000 0.723372
vt 0.000600 0.750000
vt 1.000000 0.723372
vt 0.900000 0.750000
vt 0.999400 0.750000
vt 0.800000 0.750000
vt 0.800000 0.723372
vt 0.700000 0.750000
vt 0.523818 0.916667
vt 0.000000 0.916667
vt 0.074223 0.916667
vt 0.900000 0.916667
vt 1.000000 0.916667
vt 0.600000 0.916667
vt 0.500000 0.916667
vt 0.500000 0.916667
vt 0.800000 0.916667
vt 0.900000 0.916667
vt 0.800000 0.916667
vt 0.300000 0.916667
vt 0.200000 0.916667
vt 0.200000 0.916667
vt 0.742510 0.916667
vt 0.258770 0.916667
vt 0.376182 0.916667
vt 0.700000 0.916667
vt 0.600000 0.916667
vt 0.400000 0.916667
vt 0.300000 0.916667
vt 0.641230 0.916667
vt 1.000000 0.916667
vt 0.900000 0.916667
vt 0.700000 0.916667
vt 0.825777 0.916667
vt 0.400000 0.916667
vt 0.157489 0.916667
vt 0.000000 0.916667
vt 0.100000 0.916667
vt 0.000000 0.916667
vt 0.100000 0.916667
vn 0.4189 0.0673 -0.9055
vn 0.9003 0.0565 -0.4315
vn 0.5284 -0.1955 -0.8262
vn 0.5556 0.6509 -0.5173
vn 0.4729 0.8809 -0.0182
vn 0.4157 0.7604 -0.4989
vn 0.4600 -0.8838 0.0852
vn 0.2668 -0.9286 0.2581
vn 0.3352 -0.8822 0.3307
vn -0.3415 0.8924 -0.2950
vn -0.4196 0.8910 -0.1733
vn -0.3029 0.9257 -0.2265
vn 0.9211 -0.1869 -0.3415
vn 0.5868 -0.4133 -0.6962
vn 0.2189 0.4036 -0.8884
vn 0.5671 0.6399 -0.5185
vn 0.4196 -0.8910 0.1734
vn -0.2022 0.8268 -0.5248
vn -0.0444 0.9326 -0.3580
vn 0.5977 -0.6940 -0.4013
vn 0.8285 -0.5376 -0.1564
vn 0.8030 0.3274 -0.4980
vn -0.0158 0.9929 -0.1175
vn 0.2965 0.8360 0.4616
vn 0.5245 0.8513 -0.0065
vn 0.4974 -0.8585 0.1249
vn 0.2542 -0.9551 0.1521
vn -0.3043 0.9390 -0.1601
vn 0.8711 -0.4480 0.2013
vn 0.8737 0.4766 0.0970
vn 0.1059 0.5497 -0.8286
vn 0.5043 -0.8440 0.1827
vn 0.9688 0.2009 0.1447
vn 0.1415 0.5073 -0.8500
vn 0.4651 0.7260 -0.5065
vn 0.9827 -0.0571 0.1763
vn 0.6312 0.7753 0.0213
vn -0.3375 0.9107 0.2382
vn -0.1306 0.6838 0.7179
vn 0.3022 -0.9518 0.0532
vn -0.3337 0.9384 -0.0892
vn 0.7480 -0.0735 0.6595
vn 0.3869 0.7579 0.5252
vn -0.1288 0.9854 0.1113
vn 0.7090 -0.4593 0.5351
vn 0.6041 0.4577 0.6523
vn 0.6192 0.7850 0.0177
vn 0.2554 0.8654 0.4311
vn 0.4780 -0.8458 0.2367
vn 0.7078 0.1826 0.6824
vn -0.0804 0.6061 0.7913
vn -0.1550 0.7204 0.6760
vn 0.4043 -0.5673 0.7174
vn 0.4287 -0.8633 0.2662
vn 0.2169 0.0086 0.9761
vn -0.5934 0.4553 0.6637
vn 0.3925 -0.9197 -0.0008
vn -0.3977 0.9163 -0.0454
vn 0.3068 -0.2299 0.9236
vn -0.0732 0.5951 0.8003
vn 0.0972 0.2780 0.9556
vn -0.5998 0.5007 0.6240
vn -0.5729 0.3484 0.7418
vn 0.4906 -0.8713 0.0106
vn -0.5601 0.8008 0.2121
vn 0.0732 -0.7307 0.6787
vn -0.4535 0.0061 0.8912
vn 0.3752 -0.8897 0.2600
vn -0.3164 -0.2546 0.9138
vn -0.9175 0.2367 0.3196
vn -0.4665 0.8836 -0.0388
vn -0.1724 -0.4665 0.8675
vn -0.7485 0.6312 -0.2031
vn -0.9771 0.1100 -0.1821
vn 0.5590 -0.8250 0.0832
vn -0.5387 0.8378 -0.0891
vn -0.5067 -0.6930 0.5128
vn -0.9213 0.1120 0.3722
vn -0.7183 0.6944 0.0424
vn -0.1576 -0.8871 0.4337
vn -0.8375 -0.2540 0.4837
vn -0.5756 0.3616 0.7334
vn -0.9106 0.2897 0.2948
vn 0.3378 -0.9150 0.2203
vn -0.6883 -0.5066 0.5191
vn -0.9083 -0.4031 -0.1113
vn -0.9854 -0.0071 -0.1699
vn -0.9676 0.1697 -0.1867
vn -0.2001 -0.9768 0.0760
vn 0.3309 -0.9296 0.1625
vn -0.7569 -0.6511 -0.0571
vn -0.6395 0.6389 -0.4276
vn -0.7505 0.1259 -0.6487
vn 0.5716 -0.7984 0.1892
vn -0.5528 0.8116 -0.1889
vn -0.5683 -0.8228 -0.0050
vn -0.9855 -0.0229 -0.1677
vn -0.7498 0.1850 -0.6352
vn -0.7410 -0.0058 -0.6715
vn 0.5236 -0.8018 0.2881
vn -0.0381 -0.9655 -0.2577
vn -0.6387 -0.3843 -0.6666
vn -0.7430 0.0098 -0.6692
vn 0.3571 -0.9277 0.1084
vn -0.4958 -0.6328 -0.5948
vn -0.3239 0.2776 -0.9044
vn -0.5121 0.8144 -0.2727
vn -0.3337 -0.8064 -0.4883
vn -0.1317 -0.2046 -0.9699
vn -0.0049 -0.4588 -0.8885
vn 0.4333 -0.8338 0.3421
vn -0.4298 0.8448 -0.3186
vn 0.1075 -0.6500 -0.7523
vn -0.2810 0.1568 -0.9468
vn -0.4322 0.7133 -0.5517
vn 0.2666 -0.8574 -0.4401
vn -0.3401 0.3295 -0.8807
vn 0.4064 -0.9102 0.0790
vn 0.2101 0.4165 -0.8845
vn 0.6441 0.5604 -0.5206
vn 0.7112 0.7017 0.0431
vn 0.4554 0.6839 0.5700
vn 0.3766 0.7679 0.5182
vn -0.0257 0.5132 0.8578
vn -0.5474 0.2557 0.7968
vn -0.9120 0.0088 0.4101
vn -0.9218 0.1269 0.3663
vn -0.9790 -0.1327 -0.1546
vn -0.7236 -0.1148 -0.6805
vn -0.2430 0.0555 -0.9684
vn -0.2867 0.1713 -0.9426
vn 0.2800 0.3137 -0.9073
vn 0.7739 0.6297 0.0673
vn -0.7798 -0.6241 -0.0496
vn -0.7441 -0.3966 0.5376
vn -0.5048 -0.6048 -0.6159
vn 0.5236 0.6201 -0.5842
vn -0.7583 0.5503 -0.3493
vn 0.4975 0.8658 -0.0525
vn -0.0844 -0.2965 -0.9513
vn -0.4978 -0.6166 -0.6099
vn -0.1518 0.5720 0.8060
vn -0.5488 0.1217 0.8270
vn 0.4580 0.0493 -0.8875
vn 0.0685 0.3722 0.9256
vn 0.5141 0.6123 0.6006
vn 0.3055 0.1826 -0.9345
vn 0.2424 0.8491 0.4693
vn 0.7590 0.4206 -0.4970
vn -0.7704 -0.6357 -0.0485
vn -0.0279 -0.3463 -0.9377
vn -0.4146 -0.0118 0.9099
vn -0.7913 -0.3451 0.5048
usemtl None
s 1
f 1/1/1 7/2/2 98/3/3
f 103/4/4 14/5/5 4/6/6
f 101/7/7 11/8/8 102/9/9
f 94/10/10 52/11/11 2/12/12
f 98/3/3 8/13/13 99/14/14
f 97/15/15 4/6/6 5/16/16
f 83/17/17 102/9/9 11/8/8
f 95/18/18 2/12/12 3/19/19
f 100/20/20 8/13/13 9/21/21
f 1/1/1 5/16/16 6/22/22
f 13/23/23 109/24/24 106/25/25
f 100/20/20 10/26/26 101/7/7
f 83/27/17 11/8/8 21/28/27
f 3/19/19 12/29/28 13/23/23
f 8/13/13 19/30/29 9/21/21
f 5/16/16 16/31/30 6/22/22
f 96/32/31 103/4/4 4/6/6
f 10/26/26 19/30/29 20/33/32
f 6/22/22 17/34/33 7/2/2
f 130/35/34 3/19/19 104/36/35
f 10/26/26 21/28/27 11/8/8
f 2/12/12 52/37/11 12/29/28
f 7/2/2 18/38/36 8/13/13
f 4/6/6 15/39/37 5/16/16
f 109/24/24 33/40/38 112/41/39
f 20/33/32 31/42/40 21/28/27
f 12/29/28 52/43/11 22/44/41
f 17/34/33 28/45/42 18/38/36
f 14/5/5 25/46/43 15/39/37
f 83/47/17 21/28/27 31/42/40
f 12/29/28 23/48/44 13/23/23
f 18/38/36 29/49/45 19/30/29
f 15/39/37 26/50/46 16/31/30
f 107/51/47 24/52/48 14/5/5
f 19/30/29 30/53/49 20/33/32
f 17/34/33 26/50/46 27/54/50
f 24/52/48 113/55/51 34/56/52
f 30/53/49 39/57/53 40/58/54
f 26/50/46 37/59/55 27/54/50
f 33/40/38 115/60/56 112/41/39
f 30/53/49 41/61/57 31/42/40
f 22/44/41 52/62/11 32/63/58
f 27/54/50 38/64/59 28/45/42
f 25/46/43 34/56/52 35/65/60
f 83/66/17 31/42/40 41/61/57
f 23/48/44 32/63/58 33/40/38
f 28/45/42 39/57/53 29/49/45
f 25/46/43 36/67/61 26/50/46
f 35/65/60 44/68/62 45/69/63
f 83/70/17 41/61/57 51/71/64
f 32/63/58 43/72/65 33/40/38
f 38/64/59 49/73/66 39/57/53
f 35/65/60 46/74/67 36/67/61
f 113/55/51 44/68/62 34/56/52
f 40/58/54 49/73/66 50/75/68
f 36/67/61 47/76/69 37/59/55
f 43/72/65 118/77/70 115/60/56
f 40/58/54 51/71/64 41/61/57
f 32/63/58 52/78/11 42/79/71
f 37/59/55 48/80/72 38/64/59
f 118/77/70 64/81/73 121/82/74
f 50/75/68 62/83/75 51/71/64
f 42/79/71 52/84/11 53/85/76
f 47/76/69 59/86/77 48/80/72
f 44/68/62 56/87/78 45/69/63
f 83/88/17 51/71/64 62/83/75
f 42/79/71 54/89/79 43/72/65
f 48/80/72 60/90/80 49/73/66
f 45/69/63 57/91/81 46/74/67
f 116/92/82 55/93/83 44/68/62
f 50/75/68 60/90/80 61/94/84
f 47/76/69 57/91/81 58/95/85
f 56/87/78 67/96/86 57/91/81
f 55/93/83 122/97/87 65/98/88
f 61/94/84 70/99/89 71/100/90
f 57/91/81 68/101/91 58/95/85
f 121/102/74 74/103/92 124/104/93
f 61/94/84 72/105/94 62/83/75
f 53/85/76 52/106/11 63/107/95
f 58/95/85 69/108/96 59/86/77
f 56/87/78 65/98/88 66/109/97
f 83/110/17 62/83/75 72/105/94
f 54/89/79 63/107/95 64/81/73
f 60/90/80 69/108/96 70/99/89
f 66/111/97 75/112/98 76/113/99
f 83/114/17 72/115/94 82/116/100
f 63/117/95 74/103/92 64/118/73
f 69/119/96 80/120/101 70/121/89
f 66/111/97 77/122/102 67/123/86
f 65/124/88 125/125/103 75/112/98
f 71/126/90 80/120/101 81/127/104
f 68/128/91 77/122/102 78/129/105
f 74/103/92 127/130/106 124/104/93
f 71/126/90 82/116/100 72/115/94
f 63/117/95 52/131/11 73/132/107
f 68/128/91 79/133/108 69/119/96
f 78/129/105 88/134/109 89/135/110
f 127/130/106 95/18/18 130/35/34
f 81/127/104 93/136/111 82/116/100
f 73/132/107 52/137/11 84/138/112
f 78/129/105 90/139/113 79/133/108
f 75/112/98 87/140/114 76/113/99
f 83/141/17 82/116/100 93/136/111
f 73/132/107 85/142/115 74/103/92
f 79/133/108 91/143/116 80/120/101
f 76/113/99 88/134/109 77/122/102
f 125/125/103 86/144/117 75/112/98
f 81/127/104 91/143/116 92/145/118
f 87/140/114 1/1/1 88/134/109
f 86/144/117 131/146/119 96/32/31
f 92/145/118 100/20/20 101/7/7
f 88/134/109 98/3/3 89/135/110
f 92/145/118 102/9/9 93/136/111
f 84/138/112 52/147/11 94/10/10
f 89/135/110 99/14/14 90/139/113
f 87/140/114 96/32/31 97/15/15
f 83/148/17 93/136/111 102/9/9
f 85/142/115 94/10/10 95/18/18
f 91/143/116 99/14/14 100/20/20
f 107/51/47 105/149/120 108/150/121
f 108/150/121 104/36/35 106/25/25
f 106/25/25 111/151/122 108/150/121
f 108/150/121 110/152/123 107/51/47
f 110/152/123 114/153/124 113/55/51
f 111/151/122 112/41/39 114/153/124
f 116/92/82 114/153/124 117/154/125
f 117/154/125 112/41/39 115/60/56
f 115/60/56 120/155/126 117/154/125
f 117/154/125 119/156/127 116/92/82
f 119/156/127 123/157/128 122/97/87
f 120/155/126 121/82/74 123/157/128
f 122/158/87 126/159/129 125/125/103
f 123/160/128 124/104/93 126/159/129
f 124/104/93 129/161/130 126/159/129
f 126/159/129 128/162/131 125/125/103
f 128/162/131 132/163/132 131/146/119
f 129/161/130 130/35/34 132/163/132
f 104/36/35 132/163/132 130/35/34
f 105/149/120 131/146/119 132/163/132
f 3/19/19 106/25/25 104/36/35
f 143/164/133 22/44/41 12/29/28
f 137/165/134 53/85/76 135/166/135
f 139/167/136 63/117/95 137/168/134
f 150/169/137 133/170/138 142/171/139
f 140/172/140 138/173/141 133/174/138
f 139/167/136 84/138/112 73/132/107
f 152/175/142 133/176/138 146/177/143
f 149/178/144 2/12/12 94/10/10
f 153/179/145 22/44/41 145/180/146
f 150/169/137 148/181/147 133/182/138
f 152/175/142 144/183/148 133/184/138
f 151/185/149 12/29/28 2/12/12
f 136/186/150 133/187/138 138/173/141
f 148/181/147 140/172/140 133/188/138
f 141/189/151 94/10/10 84/138/112
f 144/183/148 142/171/139 133/190/138
f 135/166/135 42/79/71 147/191/152
f 136/192/150 134/193/153 133/194/138
f 152/175/142 147/191/152 153/179/145
f 150/169/137 149/178/144 148/181/147
f 144/183/148 153/179/145 145/180/146
f 142/171/139 151/185/149 150/169/137
f 138/173/141 137/168/134 136/186/150
f 148/181/147 141/189/151 140/172/140
f 146/177/143 135/166/135 147/191/152
f 142/171/139 145/180/146 143/164/133
f 140/172/140 139/167/136 138/173/141
f 134/193/153 137/165/134 135/166/135
f 134/193/153 146/177/143 133/195/138
f 147/191/152 32/63/58 153/179/145
f 1/1/1 6/22/22 7/2/2
f 103/4/4 107/51/47 14/5/5
f 101/7/7 10/26/26 11/8/8
f 98/3/3 7/2/2 8/13/13
f 97/15/15 96/32/31 4/6/6
f 95/18/18 94/10/10 2/12/12
f 100/20/20 99/14/14 8/13/13
f 1/1/1 97/15/15 5/16/16
f 13/23/23 23/48/44 109/24/24
f 100/20/20 9/21/21 10/26/26
f 3/19/19 2/12/12 12/29/28
f 8/13/13 18/38/36 19/30/29
f 5/16/16 15/39/37 16/31/30
f 96/32/31 131/146/119 103/4/4
f 10/26/26 9/21/21 19/30/29
f 6/22/22 16/31/30 17/34/33
f 130/35/34 95/18/18 3/19/19
f 10/26/26 20/33/32 21/28/27
f 7/2/2 17/34/33 18/38/36
f 4/6/6 14/5/5 15/39/37
f 109/24/24 23/48/44 33/40/38
f 20/33/32 30/53/49 31/42/40
f 17/34/33 27/54/50 28/45/42
f 14/5/5 24/52/48 25/46/43
f 12/29/28 22/44/41 23/48/44
f 18/38/36 28/45/42 29/49/45
f 15/39/37 25/46/43 26/50/46
f 107/51/47 110/152/123 24/52/48
f 19/30/29 29/49/45 30/53/49
f 17/34/33 16/31/30 26/50/46
f 24/52/48 110/152/123 113/55/51
f 30/53/49 29/49/45 39/57/53
f 26/50/46 36/67/61 37/59/55
f 33/40/38 43/72/65 115/60/56
f 30/53/49 40/58/54 41/61/57
f 27/54/50 37/59/55 38/64/59
f 25/46/43 24/52/48 34/56/52
f 23/48/44 22/44/41 32/63/58
f 28/45/42 38/64/59 39/57/53
f 25/46/43 35/65/60 36/67/61
f 35/65/60 34/56/52 44/68/62
f 32/63/58 42/79/71 43/72/65
f 38/64/59 48/80/72 49/73/66
f 35/65/60 45/69/63 46/74/67
f 113/55/51 116/92/82 44/68/62
f 40/58/54 39/57/53 49/73/66
f 36/67/61 46/74/67 47/76/69
f 43/72/65 54/89/79 118/77/70
f 40/58/54 50/75/68 51/71/64
f 37/59/55 47/76/69 48/80/72
f 118/77/70 54/89/79 64/81/73
f 50/75/68 61/94/84 62/83/75
f 47/76/69 58/95/85 59/86/77
f 44/68/62 55/93/83 56/87/78
f 42/79/71 53/85/76 54/89/79
f 48/80/72 59/86/77 60/90/80
f 45/69/63 56/87/78 57/91/81
f 116/92/82 119/156/127 55/93/83
f 50/75/68 49/73/66 60/90/80
f 47/76/69 46/74/67 57/91/81
f 56/87/78 66/109/97 67/96/86
f 55/93/83 119/156/127 122/97/87
f 61/94/84 60/90/80 70/99/89
f 57/91/81 67/96/86 68/101/91
f 121/102/74 64/118/73 74/103/92
f 61/94/84 71/100/90 72/105/94
f 58/95/85 68/101/91 69/108/96
f 56/87/78 55/93/83 65/98/88
f 54/89/79 53/85/76 63/107/95
f 60/90/80 59/86/77 69/108/96
f 66/111/97 65/124/88 75/112/98
f 63/117/95 73/132/107 74/103/92
f 69/119/96 79/133/108 80/120/101
f 66/111/97 76/113/99 77/122/102
f 65/124/88 122/158/87 125/125/103
f 71/126/90 70/121/89 80/120/101
f 68/128/91 67/123/86 77/122/102
f 74/103/92 85/142/115 127/130/106
f 71/126/90 81/127/104 82/116/100
f 68/128/91 78/129/105 79/133/108
f 78/129/105 77/122/102 88/134/109
f 127/130/106 85/142/115 95/18/18
f 81/127/104 92/145/118 93/136/111
f 78/129/105 89/135/110 90/139/113
f 75/112/98 86/144/117 87/140/114
f 73/132/107 84/138/112 85/142/115
f 79/133/108 90/139/113 91/143/116
f 76/113/99 87/140/114 88/134/109
f 125/125/103 128/162/131 86/144/117
f 81/127/104 80/120/101 91/143/116
f 87/140/114 97/15/15 1/1/1
f 86/144/117 128/162/131 131/146/119
f 92/145/118 91/143/116 100/20/20
f 88/134/109 1/1/1 98/3/3
f 92/145/118 101/7/7 102/9/9
f 89/135/110 98/3/3 99/14/14
f 87/140/114 86/144/117 96/32/31
f 85/142/115 84/138/112 94/10/10
f 91/143/116 90/139/113 99/14/14
f 107/51/47 103/4/4 105/149/120
f 108/150/121 105/149/120 104/36/35
f 106/25/25 109/24/24 111/151/122
f 108/150/121 111/151/122 110/152/123
f 110/152/123 111/151/122 114/153/124
f 111/151/122 109/24/24 112/41/39
f 116/92/82 113/55/51 114/153/124
f 117/154/125 114/153/124 112/41/39
f 115/60/56 118/77/70 120/155/126
f 117/154/125 120/155/126 119/156/127
f 119/156/127 120/155/126 123/157/128
f 120/155/126 118/77/70 121/82/74
f 122/158/87 123/160/128 126/159/129
f 123/160/128 121/102/74 124/104/93
f 124/104/93 127/130/106 129/161/130
f 126/159/129 129/161/130 128/162/131
f 128/162/131 129/161/130 132/163/132
f 129/161/130 127/130/106 130/35/34
f 104/36/35 105/149/120 132/163/132
f 105/149/120 103/4/4 131/146/119
f 3/19/19 13/23/23 106/25/25
f 143/164/133 145/180/146 22/44/41
f 137/165/134 63/107/95 53/85/76
f 139/167/136 73/132/107 63/117/95
f 139/167/136 141/189/151 84/138/112
f 149/178/144 151/185/149 2/12/12
f 153/179/145 32/63/58 22/44/41
f 151/185/149 143/164/133 12/29/28
f 141/189/151 149/178/144 94/10/10
f 135/166/135 53/85/76 42/79/71
f 152/175/142 146/177/143 147/191/152
f 150/169/137 151/185/149 149/178/144
f 144/183/148 152/175/142 153/179/145
f 142/171/139 143/164/133 151/185/149
f 138/173/141 139/167/136 137/168/134
f 148/181/147 149/178/144 141/189/151
f 146/177/143 134/193/153 135/166/135
f 142/171/139 144/183/148 145/180/146
f 140/172/140 141/189/151 139/167/136
f 134/193/153 136/192/150 137/165/134
f 147/191/152 42/79/71 32/63/58
