# Blender v2.93.4 OBJ File: 'MarketStalls.blend'
# www.blender.org
mtllib Tent.mtl
o Tent.002_Tent.001
v 6.084383 -0.648102 -3.336868
v 6.084383 2.075185 -3.336868
v 6.089627 -0.648102 -3.198327
v 6.089627 2.075185 -3.198327
v 5.945843 -0.648102 -3.331624
v 5.945843 2.075185 -3.331624
v 5.951087 -0.648102 -3.193084
v 5.951087 2.075185 -3.193084
v 5.938751 -0.648102 -7.184350
v 5.938751 2.075185 -7.184350
v 5.943995 -0.648102 -7.045810
v 5.943995 2.075185 -7.045810
v 5.800211 -0.648102 -7.179107
v 5.800211 2.075185 -7.179107
v 5.805455 -0.648102 -7.040566
v 5.805455 2.075185 -7.040566
v 9.914689 -0.648102 -3.481849
v 9.914689 2.075185 -3.481849
v 9.919933 -0.648102 -3.343309
v 9.919933 2.075185 -3.343309
v 9.776149 -0.648102 -3.476605
v 9.776149 2.075185 -3.476605
v 9.781393 -0.648102 -3.338065
v 9.781393 2.075185 -3.338065
v 9.769057 -0.648102 -7.329332
v 9.769057 2.075185 -7.329332
v 9.774302 -0.648102 -7.190792
v 9.774302 2.075185 -7.190792
v 9.630517 -0.648102 -7.324088
v 9.630517 2.075185 -7.324088
v 9.635761 -0.648102 -7.185548
v 9.635761 2.075185 -7.185548
v 9.659988 2.022489 -7.193804
v 7.898737 3.437849 -5.293976
v 9.801907 2.022489 -3.444439
v 7.902079 3.437849 -5.205691
v 5.910624 2.022489 -7.051886
v 7.810453 3.437849 -5.290634
v 6.052542 2.022489 -3.302522
v 7.813795 3.437849 -5.202350
v 7.899319 3.555344 -5.294603
v 7.902706 3.555344 -5.205110
v 7.809826 3.555344 -5.291215
v 7.813213 3.555344 -5.201723
v 9.529602 2.199197 -7.053159
v 9.182425 2.326165 -6.678666
v 8.861126 2.493913 -6.332086
v 8.627231 2.691376 -6.079788
v 8.430771 2.919763 -5.867870
v 8.225344 3.217601 -5.646280
v 8.254383 3.217601 -4.879085
v 8.475973 2.919763 -4.673657
v 8.687891 2.691376 -4.477198
v 8.940188 2.493913 -4.243303
v 9.286769 2.326165 -3.922003
v 9.661262 2.199197 -3.574826
v 7.487187 3.217601 -4.850046
v 7.281760 2.919763 -4.628455
v 7.085300 2.691376 -4.416538
v 6.851406 2.493913 -4.164240
v 6.530106 2.326165 -3.817660
v 6.182928 2.199197 -3.443167
v 7.458148 3.217601 -5.617241
v 7.236558 2.919763 -5.822668
v 7.024641 2.691376 -6.019128
v 6.772343 2.493913 -6.253023
v 6.425762 2.326165 -6.574323
v 6.051269 2.199197 -6.921500
v 9.984373 2.052512 -3.275283
v 9.829145 2.052512 -7.376270
v 5.883385 2.052512 -3.120055
v 5.728158 2.052512 -7.221043
v 8.113287 2.929593 -5.009890
v 8.094540 2.929593 -5.505184
v 7.617992 2.929593 -4.991142
v 7.599245 2.929593 -5.486436
v 9.414837 2.143654 -6.929363
v 9.008325 2.318228 -6.490867
v 8.551793 2.601712 -5.998415
v 7.106014 2.601712 -5.943690
v 6.613562 2.318228 -6.400222
v 6.175065 2.143654 -6.806734
v 6.297694 2.143654 -3.566962
v 6.704206 2.318228 -4.005459
v 7.160739 2.601712 -4.497911
v 8.606518 2.601712 -4.552636
v 9.098969 2.318228 -4.096104
v 9.537466 2.143654 -3.689592
v 9.984373 1.936204 -3.275283
v 9.829145 1.936204 -7.376270
v 5.883385 1.936204 -3.120055
v 5.728158 1.936204 -7.221043
v 9.801907 1.906181 -3.444439
v 9.659988 1.906181 -7.193804
v 6.052542 1.906181 -3.302522
v 5.910624 1.906181 -7.051886
vt 0.025315 0.369924
vt 0.127769 0.267471
vt 0.127769 0.369924
vt 0.025315 0.267471
vt 0.127769 0.165017
vt 0.025315 0.165017
vt 0.127769 0.062564
vt 0.025315 0.472377
vt 0.127769 0.472377
vt 0.332767 0.164925
vt 0.435067 0.062626
vt 0.435067 0.164925
vt 0.332767 0.471824
vt 0.435067 0.369524
vt 0.435067 0.471823
vt 0.332767 0.369524
vt 0.435066 0.267224
vt 0.332767 0.267224
vt 0.127840 0.369524
vt 0.230140 0.267224
vt 0.230140 0.369524
vt 0.127840 0.267225
vt 0.230140 0.164925
vt 0.127840 0.164925
vt 0.230140 0.062626
vt 0.127841 0.471824
vt 0.230140 0.471823
vt 0.230304 0.267224
vt 0.332603 0.164925
vt 0.332603 0.267224
vt 0.230304 0.164925
vt 0.332603 0.062626
vt 0.230304 0.471824
vt 0.332603 0.369524
vt 0.332603 0.471823
vt 0.230304 0.369524
vt 0.025315 0.062564
vt 0.332767 0.062626
vt 0.127841 0.062626
vt 0.230304 0.062626
vt 0.730413 0.000000
vt 0.694699 0.250000
vt 0.694699 0.000000
vt 0.730413 0.500000
vt 0.694699 0.500000
vt 0.694699 0.750000
vt 0.730413 0.750000
vt 0.694699 1.000000
vt 0.244343 0.736070
vt 0.466484 0.736070
vt 0.466484 0.736070
vt 0.730413 0.250000
vt 0.730413 0.500000
vt 0.980413 0.500000
vt 0.730413 0.750000
vt 0.730413 0.250000
vt 0.730413 1.000000
vt 0.730413 1.000000
vt 0.516128 0.750000
vt 0.480413 1.000000
vt 0.480413 0.750000
vt 0.551842 0.750000
vt 0.516128 1.000000
vt 0.587556 0.750000
vt 0.551842 1.000000
vt 0.623271 0.750000
vt 0.587556 1.000000
vt 0.658985 0.750000
vt 0.623270 1.000000
vt 0.658985 1.000000
vt 0.516128 0.500000
vt 0.480413 0.500000
vt 0.551842 0.500000
vt 0.587556 0.500000
vt 0.623271 0.500000
vt 0.658985 0.500000
vt 0.480413 0.250000
vt 0.551842 0.250000
vt 0.516128 0.250000
vt 0.587556 0.250000
vt 0.623271 0.250000
vt 0.658985 0.250000
vt 0.516128 0.000000
vt 0.480413 0.000000
vt 0.551842 0.000000
vt 0.587556 0.000000
vt 0.623270 0.000000
vt 0.658985 0.000000
vt 0.244343 0.513930
vt 0.466484 0.513930
vt 0.466484 0.513930
vt 0.466484 0.736070
vt 0.244343 0.736070
vt 0.244343 0.736070
vt 0.480413 0.500000
vt 0.480413 0.000000
vt 0.466484 0.513930
vt 0.244343 0.736070
vt 0.244343 0.513930
vt 0.244343 0.513930
vt 0.466484 0.513930
vt 0.244343 0.736070
vt 0.244343 0.513930
vt 0.244343 0.736070
vt 0.244343 0.513930
vt 0.466484 0.736070
vt 0.466484 0.513930
vt 0.466484 0.513930
vt 0.466484 0.736070
vt 0.230413 0.500000
vt 0.244343 0.513930
vt 0.480413 0.750000
vt 0.466484 0.736070
vt 0.230413 0.750000
vt 0.480413 0.250000
vt 0.980413 0.750000
vt 0.730413 0.000000
vt 0.480413 1.000000
vn 0.9993 0.0000 -0.0378
vn 0.0378 0.0000 0.9993
vn -0.9993 0.0000 0.0378
vn -0.0378 0.0000 -0.9993
vn 0.4919 0.6902 -0.5306
vn 0.4540 0.7853 0.4209
vn 0.4209 0.7853 -0.4540
vn -0.4919 0.6902 0.5306
vn -0.4209 0.7853 0.4540
vn -0.4540 0.7853 -0.4209
vn -0.5306 0.6902 -0.4919
vn -0.2737 -0.9153 0.2952
vn 0.2378 -0.9460 0.2204
vn 0.2952 -0.9153 0.2737
vn 0.6001 0.5746 0.5564
vn -0.5564 0.5746 0.6001
vn -0.6001 0.5746 -0.5564
vn 0.5306 0.6902 0.4919
vn 0.5564 0.5746 -0.6001
vn -0.2173 0.9551 -0.2014
vn 0.5945 0.4851 -0.6413
vn -0.6413 0.4851 -0.5945
vn -0.1949 0.9640 -0.1807
vn 0.2014 0.9551 -0.2173
vn -0.2788 0.9249 -0.2584
vn 0.1807 0.9640 -0.1949
vn -0.3924 0.8448 -0.3638
vn 0.2584 0.9249 -0.2788
vn -0.4744 0.7625 -0.4398
vn 0.3638 0.8448 -0.3924
vn 0.4398 0.7625 -0.4744
vn -0.2014 0.9551 0.2173
vn -0.5945 0.4851 0.6413
vn -0.1807 0.9640 0.1949
vn -0.2584 0.9249 0.2788
vn -0.3638 0.8448 0.3924
vn -0.4398 0.7625 0.4744
vn 0.6413 0.4851 0.5945
vn 0.1949 0.9640 0.1807
vn 0.2173 0.9551 0.2014
vn 0.2788 0.9249 0.2584
vn 0.3924 0.8448 0.3638
vn 0.4744 0.7625 0.4398
vn -0.6416 -0.4843 -0.5948
vn 0.2297 -0.9412 -0.2478
vn 0.5948 -0.4843 -0.6416
vn 0.6416 -0.4843 0.5948
vn -0.2297 -0.9412 0.2478
vn -0.5948 -0.4843 0.6416
vn -0.5704 -0.5440 0.6153
vn 0.5704 -0.5440 -0.6153
vn 0.2204 -0.9460 -0.2378
vn -0.2204 -0.9460 0.2378
vn -0.2378 -0.9460 -0.2204
vn -0.2952 -0.9153 -0.2737
vn 0.2737 -0.9153 -0.2952
vn -0.2097 -0.9512 0.2261
vn -0.2261 -0.9512 -0.2097
vn -0.2103 -0.9509 0.2269
vn -0.2269 -0.9509 -0.2103
vn 0.2261 -0.9512 0.2097
vn 0.2097 -0.9512 -0.2261
vn 0.2103 -0.9509 -0.2269
vn 0.2269 -0.9509 0.2103
vn 0.6153 -0.5440 0.5704
vn -0.2478 -0.9412 -0.2297
vn -0.6153 -0.5440 -0.5704
vn 0.2478 -0.9412 0.2297
usemtl None
s off
f 2/1/1 3/2/1 1/3/1
f 4/4/2 7/5/2 3/2/2
f 8/6/3 5/7/3 7/5/3
f 6/8/4 1/3/4 5/9/4
f 10/10/1 11/11/1 9/12/1
f 12/13/2 15/14/2 11/15/2
f 16/16/3 13/17/3 15/14/3
f 14/18/4 9/12/4 13/17/4
f 18/19/1 19/20/1 17/21/1
f 20/22/2 23/23/2 19/20/2
f 24/24/3 21/25/3 23/23/3
f 22/26/4 17/21/4 21/27/4
f 26/28/1 27/29/1 25/30/1
f 28/31/2 31/32/2 27/29/2
f 32/33/3 29/34/3 31/35/3
f 30/36/4 25/30/4 29/34/4
f 2/1/1 4/4/1 3/2/1
f 4/4/2 8/6/2 7/5/2
f 8/6/3 6/37/3 5/7/3
f 6/8/4 2/1/4 1/3/4
f 10/10/1 12/38/1 11/11/1
f 12/13/2 16/16/2 15/14/2
f 16/16/3 14/18/3 13/17/3
f 14/18/4 10/10/4 9/12/4
f 18/19/1 20/22/1 19/20/1
f 20/22/2 24/24/2 23/23/2
f 24/24/3 22/39/3 21/25/3
f 22/26/4 18/19/4 17/21/4
f 26/28/1 28/31/1 27/29/1
f 28/31/2 32/40/2 31/32/2
f 32/33/3 30/36/3 29/34/3
f 30/36/4 26/28/4 25/30/4
s 1
f 34/41/5 51/42/6 50/43/7
f 51/42/6 40/44/8 57/45/9
f 40/44/8 63/46/10 57/45/9
f 38/47/11 50/48/7 63/46/10
f 79/49/12 76/50/13 80/51/14
f 40/44/8 42/52/15 44/53/16
f 42/54/15 43/55/17 44/53/16
f 40/44/8 43/55/17 38/47/11
f 34/41/5 42/52/15 36/56/18
f 38/47/11 41/57/19 34/58/5
f 68/59/20 70/60/21 72/61/22
f 67/62/23 45/63/24 68/59/20
f 66/64/25 46/65/26 67/62/23
f 65/66/27 47/67/28 66/64/25
f 64/68/29 48/69/30 65/66/27
f 64/68/29 50/48/7 49/70/31
f 62/71/32 72/61/22 71/72/33
f 61/73/34 68/59/20 62/71/32
f 60/74/35 67/62/23 61/73/34
f 59/75/36 66/64/25 60/74/35
f 58/76/37 65/66/27 59/75/36
f 57/45/9 64/68/29 58/76/37
f 69/77/38 62/71/32 71/72/33
f 55/78/39 62/71/32 56/79/40
f 54/80/41 61/73/34 55/78/39
f 53/81/42 60/74/35 54/80/41
f 52/82/43 59/75/36 53/81/42
f 51/42/6 58/76/37 52/82/43
f 45/83/24 69/77/38 70/84/21
f 46/85/26 56/79/40 45/83/24
f 47/86/28 55/78/39 46/85/26
f 48/87/30 54/80/41 47/86/28
f 49/88/31 53/81/42 48/87/30
f 49/88/31 51/42/6 52/82/43
f 35/89/44 95/90/45 39/91/46
f 37/92/47 94/93/48 33/94/49
f 72/61/22 91/95/50 71/72/33
f 69/77/38 90/96/51 70/84/21
f 75/97/52 74/98/53 73/99/54
f 86/100/55 75/97/52 73/99/54
f 80/51/14 75/97/52 85/101/56
f 86/100/55 74/98/53 79/49/12
f 35/89/44 77/102/57 33/94/49
f 88/103/58 78/104/59 77/102/57
f 87/105/60 79/49/12 78/104/59
f 39/91/46 82/106/61 83/107/62
f 82/106/61 84/108/63 83/107/62
f 81/109/64 85/101/56 84/108/63
f 39/91/46 88/103/58 35/89/44
f 88/103/58 84/108/63 87/105/60
f 87/105/60 85/101/56 86/100/55
f 33/94/49 82/106/61 37/92/47
f 77/102/57 81/109/64 82/106/61
f 78/104/59 80/51/14 81/109/64
f 94/93/48 89/110/65 93/111/66
f 93/111/66 91/95/50 95/90/45
f 95/90/45 92/112/67 96/113/68
f 96/113/68 90/114/51 94/93/48
f 70/60/21 92/112/67 72/61/22
f 39/91/46 96/113/68 37/92/47
f 71/72/33 89/115/65 69/77/38
f 33/94/49 93/111/66 35/89/44
f 34/41/5 36/56/18 51/42/6
f 51/42/6 36/56/18 40/44/8
f 40/44/8 38/47/11 63/46/10
f 38/47/11 34/58/5 50/48/7
f 79/49/12 74/98/53 76/50/13
f 40/44/8 36/56/18 42/52/15
f 42/54/15 41/116/19 43/55/17
f 40/44/8 44/53/16 43/55/17
f 34/41/5 41/117/19 42/52/15
f 38/47/11 43/55/17 41/57/19
f 68/59/20 45/63/24 70/60/21
f 67/62/23 46/65/26 45/63/24
f 66/64/25 47/67/28 46/65/26
f 65/66/27 48/69/30 47/67/28
f 64/68/29 49/70/31 48/69/30
f 64/68/29 63/46/10 50/48/7
f 62/71/32 68/59/20 72/61/22
f 61/73/34 67/62/23 68/59/20
f 60/74/35 66/64/25 67/62/23
f 59/75/36 65/66/27 66/64/25
f 58/76/37 64/68/29 65/66/27
f 57/45/9 63/46/10 64/68/29
f 69/77/38 56/79/40 62/71/32
f 55/78/39 61/73/34 62/71/32
f 54/80/41 60/74/35 61/73/34
f 53/81/42 59/75/36 60/74/35
f 52/82/43 58/76/37 59/75/36
f 51/42/6 57/45/9 58/76/37
f 45/83/24 56/79/40 69/77/38
f 46/85/26 55/78/39 56/79/40
f 47/86/28 54/80/41 55/78/39
f 48/87/30 53/81/42 54/80/41
f 49/88/31 52/82/43 53/81/42
f 49/88/31 50/43/7 51/42/6
f 35/89/44 93/111/66 95/90/45
f 37/92/47 96/113/68 94/93/48
f 72/61/22 92/112/67 91/95/50
f 69/77/38 89/115/65 90/96/51
f 75/97/52 76/50/13 74/98/53
f 86/100/55 85/101/56 75/97/52
f 80/51/14 76/50/13 75/97/52
f 86/100/55 73/99/54 74/98/53
f 35/89/44 88/103/58 77/102/57
f 88/103/58 87/105/60 78/104/59
f 87/105/60 86/100/55 79/49/12
f 39/91/46 37/92/47 82/106/61
f 82/106/61 81/109/64 84/108/63
f 81/109/64 80/51/14 85/101/56
f 39/91/46 83/107/62 88/103/58
f 88/103/58 83/107/62 84/108/63
f 87/105/60 84/108/63 85/101/56
f 33/94/49 77/102/57 82/106/61
f 77/102/57 78/104/59 81/109/64
f 78/104/59 79/49/12 80/51/14
f 94/93/48 90/114/51 89/110/65
f 93/111/66 89/110/65 91/95/50
f 95/90/45 91/95/50 92/112/67
f 96/113/68 92/112/67 90/114/51
f 70/60/21 90/118/51 92/112/67
f 39/91/46 95/90/45 96/113/68
f 71/72/33 91/95/50 89/115/65
f 33/94/49 94/93/48 93/111/66
