# Blender v2.93.4 OBJ File: 'MarketStalls.blend'
# www.blender.org
mtllib ToolBox.mtl
o ToolBox.001_Cube.005
v 6.498734 0.433344 -11.361549
v 6.506829 0.686294 -11.390187
v 6.356357 0.433344 -11.608003
v 6.385210 0.686294 -11.600710
v 6.975330 0.433344 -11.636880
v 6.946477 0.686294 -11.644173
v 6.832953 0.433344 -11.883333
v 6.824858 0.686294 -11.854695
v 6.498734 0.686294 -11.361549
v 6.356357 0.686294 -11.608003
v 6.832953 0.686294 -11.883333
v 6.975330 0.686294 -11.636880
v 6.506829 0.470652 -11.390187
v 6.385210 0.470652 -11.600710
v 6.824858 0.470652 -11.854695
v 6.946477 0.470652 -11.644173
v 6.452181 0.887324 -11.442132
v 6.402909 0.887324 -11.527422
v 6.879505 0.887324 -11.802752
v 6.928777 0.887324 -11.717462
v 6.467063 0.887324 -11.459022
v 6.424974 0.887324 -11.531877
v 6.864623 0.887324 -11.785862
v 6.906712 0.887324 -11.713007
v 6.420916 0.828071 -11.506400
v 6.888714 0.828071 -11.776648
v 6.423495 0.813904 -11.501935
v 6.891294 0.813904 -11.772183
v 6.430026 0.806367 -11.490630
v 6.897824 0.806367 -11.760879
v 6.437452 0.808984 -11.477775
v 6.905251 0.808984 -11.748023
v 6.442299 0.820533 -11.469384
v 6.910098 0.820533 -11.739632
v 6.442299 0.835608 -11.469384
v 6.910098 0.835608 -11.739632
v 6.437452 0.847157 -11.477775
v 6.905251 0.847157 -11.748023
v 6.430026 0.849775 -11.490630
v 6.897824 0.849775 -11.760879
v 6.423495 0.842237 -11.501935
v 6.891294 0.842237 -11.772183
vt 0.907483 0.783677
vt 0.700995 0.577188
vt 0.907483 0.577188
vt 0.494506 0.577188
vt 0.700995 0.370699
vt 0.700995 0.164211
vt 0.907484 0.370699
vt 0.254613 0.345897
vt 0.004413 0.600896
vt 0.000106 0.346512
vt 0.268183 0.354450
vt 0.379112 0.481558
vt 0.274903 0.588393
vt 0.700995 0.783677
vt 0.839968 0.947782
vt 0.768509 0.947782
vt 0.480225 0.375464
vt 0.481645 0.572788
vt 0.434776 0.696569
vt 0.429152 0.692176
vt 0.386055 0.474602
vt 0.371974 0.472947
vt 0.380285 0.466511
vt 0.478616 0.572140
vt 0.477222 0.376294
vt 0.382606 0.704358
vt 0.385599 0.697695
vt 0.358591 0.243938
vt 0.412610 0.237305
vt 0.406909 0.242989
vt 0.494506 0.370699
vt 0.258797 0.596589
vt 0.358977 0.244879
vt 0.405973 0.244050
vt 0.385030 0.695908
vt 0.353997 0.238641
vt 0.839969 0.000106
vt 0.907484 0.164211
vt 0.428239 0.691240
vt 0.768509 0.000106
vt 0.099858 0.843997
vt 0.598579 0.814090
vt 0.598579 0.843998
vt 0.099858 0.814089
vt 0.598579 0.786297
vt 0.099858 0.786296
vt 0.598579 0.759276
vt 0.099858 0.759276
vt 0.598579 0.730339
vt 0.099857 0.987937
vt 0.598579 0.957654
vt 0.598579 0.987936
vt 0.099858 0.957654
vt 0.598579 0.928717
vt 0.099857 0.928717
vt 0.598579 0.901698
vt 0.099858 0.873904
vt 0.598579 0.873905
vt 0.099858 0.730339
vt 0.099858 0.901697
vn -0.8659 0.0000 0.5002
vn -0.5002 0.0000 -0.8659
vn 0.8659 0.0000 -0.5002
vn 0.5002 0.0000 0.8659
vn 0.0000 -1.0000 -0.0000
vn 0.0000 1.0000 -0.0000
vn -0.1854 0.3509 -0.9179
vn -0.9133 0.3150 -0.2582
vn 0.9133 0.3150 0.2582
vn 0.1853 0.3510 0.9179
vn 0.2326 0.3150 -0.9201
vn -0.7026 0.3509 -0.6190
vn 0.7025 0.3509 0.6191
vn -0.2325 0.3150 0.9202
vn -0.3832 -0.6428 -0.6633
vn -0.0869 -0.9848 -0.1503
vn 0.2501 -0.8660 0.4329
vn 0.4700 -0.3420 0.8137
vn 0.4700 0.3420 0.8137
vn 0.2501 0.8660 0.4329
vn -0.0869 0.9848 -0.1503
vn -0.3832 0.6428 -0.6633
usemtl None
s off
f 9/1/1 3/2/1 1/3/1
f 10/4/2 7/5/2 3/2/2
f 11/6/3 5/7/3 7/5/3
f 12/8/4 1/9/4 5/10/4
f 7/5/5 1/3/5 3/2/5
f 6/11/2 13/12/2 2/13/2
f 10/14/1 17/15/1 18/16/1
f 8/17/6 10/4/6 4/18/6
f 4/18/7 18/19/7 22/20/7
f 2/13/6 12/8/6 6/11/6
f 14/21/6 16/22/6 15/23/6
f 4/24/4 15/23/4 8/25/4
f 8/25/1 16/22/1 6/11/1
f 2/13/3 14/21/3 4/24/3
f 22/20/6 17/26/6 21/27/6
f 24/28/6 19/29/6 23/30/6
f 8/17/8 19/29/8 11/31/8
f 2/13/9 17/26/9 9/32/9
f 8/25/1 24/33/1 23/34/1
f 4/24/3 21/35/3 2/13/3
f 6/11/10 20/36/10 24/28/10
f 11/6/3 20/37/3 12/38/3
f 9/1/1 10/14/1 3/2/1
f 10/4/2 11/31/2 7/5/2
f 11/6/3 12/38/3 5/7/3
f 12/8/4 9/32/4 1/9/4
f 7/5/5 5/7/5 1/3/5
f 6/11/2 16/22/2 13/12/2
f 10/14/1 9/1/1 17/15/1
f 8/17/6 11/31/6 10/4/6
f 4/18/11 10/4/11 18/19/11
f 2/13/6 9/32/6 12/8/6
f 14/21/6 13/12/6 16/22/6
f 4/24/4 14/21/4 15/23/4
f 8/25/1 15/23/1 16/22/1
f 2/13/3 13/12/3 14/21/3
f 22/20/6 18/19/6 17/26/6
f 24/28/6 20/36/6 19/29/6
f 8/17/12 23/30/12 19/29/12
f 2/13/13 21/27/13 17/26/13
f 8/25/1 6/11/1 24/33/1
f 4/24/3 22/39/3 21/35/3
f 6/11/14 12/8/14 20/36/14
f 11/6/3 19/40/3 20/37/3
s 1
f 26/41/2 27/42/15 25/43/2
f 28/44/15 29/45/16 27/42/15
f 30/46/16 31/47/17 29/45/16
f 32/48/17 33/49/18 31/47/17
f 34/50/18 35/51/19 33/52/18
f 36/53/19 37/54/20 35/51/19
f 38/55/20 39/56/21 37/54/20
f 39/56/21 42/57/22 41/58/22
f 42/57/22 25/43/2 41/58/22
f 26/41/2 28/44/15 27/42/15
f 28/44/15 30/46/16 29/45/16
f 30/46/16 32/48/17 31/47/17
f 32/48/17 34/59/18 33/49/18
f 34/50/18 36/53/19 35/51/19
f 36/53/19 38/55/20 37/54/20
f 38/55/20 40/60/21 39/56/21
f 39/56/21 40/60/21 42/57/22
f 42/57/22 26/41/2 25/43/2
